<?xml version="1.0" encoding="utf-8"?>
<!-- Generator: Adobe Illustrator 23.0.1, SVG Export Plug-In . SVG Version: 6.00 Build 0)  -->
<svg version="1.1" id="Layer_1" xmlns="http://www.w3.org/2000/svg" xmlns:xlink="http://www.w3.org/1999/xlink" x="0px" y="0px"
	 viewBox="0 0 74.5 64.6" style="enable-background:new 0 0 74.5 64.6;" xml:space="preserve">
<style type="text/css">
	.st0{fill:none;stroke:#000000;stroke-width:1.5;stroke-linecap:round;stroke-linejoin:round;stroke-miterlimit:10;}
</style>
<g>
	<g>
		<line class="st0" x1="28.7" y1="56.8" x2="63.7" y2="56.8"/>
		<path class="st0" d="M14.3,63.8H2.9c-0.7,0-1.3-0.6-1.3-1.3V51.1c0-0.7,0.6-1.3,1.3-1.3h11.4c0.7,0,1.3,0.6,1.3,1.3v11.4
			C15.6,63.2,15,63.8,14.3,63.8z"/>
	</g>
	<g>
		<line class="st0" x1="28.7" y1="32.3" x2="56.7" y2="32.3"/>
		<path class="st0" d="M6.7,26.9l-5.4,9.4c-0.5,0.9,0.1,2,1.1,2h10.8c1,0,1.7-1.1,1.1-2L9,26.9C8.5,26.1,7.2,26.1,6.7,26.9z"/>
	</g>
	<g>
		<line class="st0" x1="28.7" y1="7.8" x2="73.7" y2="7.8"/>
		<circle class="st0" cx="7.8" cy="7.8" r="7"/>
	</g>
</g>
</svg>
