<?xml version="1.0" encoding="iso-8859-1"?>
<!-- Generator: Adobe Illustrator 19.0.0, SVG Export Plug-In . SVG Version: 6.00 Build 0)  -->
<svg version="1.1" id="Layer_1" xmlns="http://www.w3.org/2000/svg" xmlns:xlink="http://www.w3.org/1999/xlink" x="0px" y="0px"
	 viewBox="0 0 512.205 512.205" style="enable-background:new 0 0 512.205 512.205;" xml:space="preserve">
<g>
	<g>
		<g>
			<path d="M486.502,256V68.267C486.502,30.564,455.938,0,418.236,0h-25.6c-4.713,0-8.533,3.82-8.533,8.533v43.52
				c-19.868,4.056-34.137,21.535-34.133,41.813c0,4.713,3.82,8.533,8.533,8.533h68.267c4.713,0,8.533-3.82,8.533-8.533
				c0.004-20.278-14.265-37.758-34.133-41.813V17.067h17.067c28.277,0,51.2,22.923,51.2,51.2V256H25.702
				c-14.138,0-25.6,11.462-25.6,25.6c0,14.138,11.461,25.6,25.6,25.6c2.304,62.123,28.928,128,68.779,147.541
				c-12.885,13.761-12.174,35.361,1.586,48.246c13.761,12.885,35.361,12.174,48.246-1.586c10.335-11.037,12.176-27.559,4.525-40.601
				h214.443c-3.068,5.169-4.716,11.056-4.779,17.067c-0.112,18.851,15.079,34.223,33.93,34.335
				c18.851,0.112,34.223-15.079,34.335-33.93c0.052-8.733-3.246-17.154-9.215-23.53c39.851-19.541,66.475-85.419,68.949-147.541
				c14.138,0,25.6-11.462,25.6-25.6C512.102,267.462,500.641,256,486.502,256z M416.785,85.333h-48.299
				c4.692-13.337,19.307-20.346,32.645-15.654C408.452,72.255,414.21,78.012,416.785,85.333z M119.569,494.933
				c-9.426,0-17.067-7.641-17.067-17.067s7.641-17.067,17.067-17.067s17.067,7.641,17.067,17.067S128.995,494.933,119.569,494.933z
				 M392.636,494.933c-9.426,0-17.067-7.641-17.067-17.067s7.641-17.067,17.067-17.067c9.426,0,17.067,7.641,17.067,17.067
				S402.061,494.933,392.636,494.933z M392.636,443.733H119.569c-37.973,0-73.813-65.195-76.8-136.533h426.667
				C466.449,378.539,430.609,443.733,392.636,443.733z M486.502,290.133h-460.8c-4.713,0-8.533-3.82-8.533-8.533
				s3.82-8.533,8.533-8.533h460.8c4.713,0,8.533,3.821,8.533,8.533S491.215,290.133,486.502,290.133z"/>
			<path d="M392.636,145.067c4.713,0,8.533-3.82,8.533-8.533V128c0-4.713-3.821-8.533-8.533-8.533c-4.713,0-8.533,3.82-8.533,8.533
				v8.533C384.102,141.246,387.923,145.067,392.636,145.067z"/>
			<path d="M384.102,179.2c0,4.713,3.821,8.533,8.533,8.533c4.713,0,8.533-3.82,8.533-8.533v-8.533c0-4.713-3.821-8.533-8.533-8.533
				c-4.713,0-8.533,3.82-8.533,8.533V179.2z"/>
			<path d="M384.102,221.867c0,4.713,3.821,8.533,8.533,8.533c4.713,0,8.533-3.82,8.533-8.533v-8.533
				c0-4.713-3.821-8.533-8.533-8.533c-4.713,0-8.533,3.821-8.533,8.533V221.867z"/>
			<path d="M358.502,145.067c4.713,0,8.533-3.82,8.533-8.533V128c0-4.713-3.82-8.533-8.533-8.533s-8.533,3.82-8.533,8.533v8.533
				C349.969,141.246,353.789,145.067,358.502,145.067z"/>
			<path d="M358.502,187.733c4.713,0,8.533-3.82,8.533-8.533v-8.533c0-4.713-3.82-8.533-8.533-8.533s-8.533,3.82-8.533,8.533v8.533
				C349.969,183.913,353.789,187.733,358.502,187.733z"/>
			<path d="M358.502,230.4c4.713,0,8.533-3.82,8.533-8.533v-8.533c0-4.713-3.82-8.533-8.533-8.533s-8.533,3.821-8.533,8.533v8.533
				C349.969,226.58,353.789,230.4,358.502,230.4z"/>
			<path d="M426.769,145.067c4.713,0,8.533-3.82,8.533-8.533V128c0-4.713-3.82-8.533-8.533-8.533s-8.533,3.82-8.533,8.533v8.533
				C418.236,141.246,422.056,145.067,426.769,145.067z"/>
			<path d="M418.236,179.2c0,4.713,3.82,8.533,8.533,8.533s8.533-3.82,8.533-8.533v-8.533c0-4.713-3.82-8.533-8.533-8.533
				s-8.533,3.82-8.533,8.533V179.2z"/>
			<path d="M418.236,221.867c0,4.713,3.82,8.533,8.533,8.533s8.533-3.82,8.533-8.533v-8.533c0-4.713-3.82-8.533-8.533-8.533
				s-8.533,3.821-8.533,8.533V221.867z"/>
		</g>
	</g>
</g>
<g>
</g>
<g>
</g>
<g>
</g>
<g>
</g>
<g>
</g>
<g>
</g>
<g>
</g>
<g>
</g>
<g>
</g>
<g>
</g>
<g>
</g>
<g>
</g>
<g>
</g>
<g>
</g>
<g>
</g>
</svg>
