<?xml version="1.0" encoding="utf-8"?>
<!-- Generator: Adobe Illustrator 23.0.1, SVG Export Plug-In . SVG Version: 6.00 Build 0)  -->
<svg version="1.1" id="Layer_1" xmlns="http://www.w3.org/2000/svg" xmlns:xlink="http://www.w3.org/1999/xlink" x="0px" y="0px"
	 viewBox="0 0 100 72" style="enable-background:new 0 0 100 72;" xml:space="preserve">
<style type="text/css">
	.st0{fill:none;stroke:#000000;stroke-miterlimit:10;}
</style>
<g>
	<g>
		<path class="st0" d="M15.2,71.5H8.8c-0.7,0-1.3-0.6-1.3-1.3v-7.7h9v7.7C16.5,70.9,15.9,71.5,15.2,71.5z"/>
		<path class="st0" d="M91.2,71.5h-6.4c-0.7,0-1.3-0.6-1.3-1.3v-7.7h9v7.7C92.5,70.9,91.9,71.5,91.2,71.5z"/>
	</g>
	<g>
		<path class="st0" d="M87,29.5H13V1.8c0-0.7,0.6-1.3,1.3-1.3h71.4c0.7,0,1.3,0.6,1.3,1.3V29.5z"/>
		<g>
			<path class="st0" d="M43,29.5H25V15.8c0-0.7,0.6-1.3,1.3-1.3h15.4c0.7,0,1.3,0.6,1.3,1.3V29.5z"/>
			<path class="st0" d="M75,29.5H57V15.8c0-0.7,0.6-1.3,1.3-1.3h15.4c0.7,0,1.3,0.6,1.3,1.3V29.5z"/>
		</g>
		<path class="st0" d="M98.2,62.5H1.8c-0.7,0-1.3-0.6-1.3-1.3V37.5c0-4.4,3.6-8,8-8h83c4.4,0,8,3.6,8,8v23.7
			C99.5,61.9,98.9,62.5,98.2,62.5z"/>
		<line class="st0" x1="0.5" y1="46" x2="99.5" y2="46"/>
	</g>
</g>
</svg>
