<?xml version="1.0" encoding="utf-8"?>
<!-- Generator: Adobe Illustrator 23.0.1, SVG Export Plug-In . SVG Version: 6.00 Build 0)  -->
<svg version="1.1" id="Layer_1" xmlns="http://www.w3.org/2000/svg" xmlns:xlink="http://www.w3.org/1999/xlink" x="0px" y="0px"
	 viewBox="0 0 36.5 37.4" style="enable-background:new 0 0 36.5 37.4;" xml:space="preserve">
<style type="text/css">
	.st0{fill:none;stroke:#000000;stroke-linecap:round;stroke-linejoin:round;stroke-miterlimit:10;}
</style>
<g>
	<path d="M17.4,6.4l-2.1-2.1c-0.1-0.1-0.1-0.2,0-0.3l0,0c0.1-0.1,0.2-0.1,0.3,0l2.1,2.1c0.1,0.1,0.1,0.2,0,0.3l0,0
		C17.6,6.4,17.4,6.4,17.4,6.4z"/>
	<path d="M20.4,9.4l-2.1-2.1c-0.1-0.1-0.1-0.2,0-0.3l0,0c0.1-0.1,0.2-0.1,0.3,0l2.2,2.1c0.1,0.1,0.1,0.2,0,0.3l0,0
		C20.7,9.5,20.5,9.5,20.4,9.4z"/>
	<path d="M23.5,12.5l-2.1-2.1c-0.1-0.1-0.1-0.2,0-0.3l0,0c0.1-0.1,0.2-0.1,0.3,0l2.1,2.1c0.1,0.1,0.1,0.2,0,0.3l0,0
		C23.8,12.6,23.6,12.6,23.5,12.5z"/>
	<path d="M14.8,8.9l-2.1-2.1c-0.1-0.1-0.1-0.2,0-0.3l0,0c0.1-0.1,0.2-0.1,0.3,0l2.1,2.1c0.1,0.1,0.1,0.2,0,0.3l0,0
		C15.1,9,14.9,9,14.8,8.9z"/>
	<path d="M17.9,12l-2.1-2.1c-0.1-0.1-0.1-0.2,0-0.3l0,0c0.1-0.1,0.2-0.1,0.3,0l2.1,2.1c0.1,0.1,0.1,0.2,0,0.3l0,0
		C18.2,12.1,18,12.1,17.9,12z"/>
	<path d="M21,15.1L18.9,13c-0.1-0.1-0.1-0.2,0-0.3l0,0c0.1-0.1,0.2-0.1,0.3,0l2.1,2.1c0.1,0.1,0.1,0.2,0,0.3l0,0
		C21.2,15.1,21.1,15.1,21,15.1z"/>
	<path d="M12.3,11.4l-2.1-2.1c-0.1-0.1-0.1-0.2,0-0.3l0,0c0.1-0.1,0.2-0.1,0.3,0l2.1,2.1c0.1,0.1,0.1,0.2,0,0.3l0,0
		C12.5,11.5,12.4,11.5,12.3,11.4z"/>
	<path d="M15.4,14.5l-2.1-2.1c-0.1-0.1-0.1-0.2,0-0.3l0,0c0.1-0.1,0.2-0.1,0.3,0l2.1,2.1c0.1,0.1,0.1,0.2,0,0.3l0,0
		C15.6,14.6,15.5,14.6,15.4,14.5z"/>
	<path d="M18.5,17.6l-2.1-2.1c-0.1-0.1-0.1-0.2,0-0.3l0,0c0.1-0.1,0.2-0.1,0.3,0l2.1,2.1c0.1,0.1,0.1,0.2,0,0.3l0,0
		C18.7,17.7,18.6,17.7,18.5,17.6z"/>
	<path d="M17.9,9.4l-2.1-2.1c-0.1-0.1-0.1-0.2,0-0.3l0,0c0.1-0.1,0.2-0.1,0.3,0l2.1,2.1c0.1,0.1,0.1,0.2,0,0.3l0,0
		C18.1,9.5,17.9,9.5,17.9,9.4z"/>
	<path d="M20.9,12.5l-2.1-2.1c-0.1-0.1-0.1-0.2,0-0.3l0,0c0.1-0.1,0.2-0.1,0.3,0l2.1,2.1c0.1,0.1,0.1,0.2,0,0.3l0,0
		C21.2,12.6,21,12.6,20.9,12.5z"/>
	<path d="M24,15.5l-2.1-2.1c-0.1-0.1-0.1-0.2,0-0.3l0,0c0.1-0.1,0.2-0.1,0.3,0l2.1,2.1c0.1,0.1,0.1,0.2,0,0.3l0,0
		C24.3,15.6,24.1,15.6,24,15.5z"/>
	<path d="M15.3,11.9l-2.1-2.1c-0.1-0.1-0.1-0.2,0-0.3l0,0c0.1-0.1,0.2-0.1,0.3,0l2.1,2.1c0.1,0.1,0.1,0.2,0,0.3l0,0
		C15.6,12,15.4,12,15.3,11.9z"/>
	<path d="M18.4,15l-2.1-2.1c-0.1-0.1-0.1-0.2,0-0.3l0,0c0.1-0.1,0.2-0.1,0.3,0l2.1,2.1c0.1,0.1,0.1,0.2,0,0.3l0,0
		C18.7,15.1,18.5,15.1,18.4,15z"/>
	<path d="M21.5,18.1L19.4,16c-0.1-0.1-0.1-0.2,0-0.3l0,0c0.1-0.1,0.2-0.1,0.3,0l2.1,2.1c0.1,0.1,0.1,0.2,0,0.3l0,0
		C21.8,18.2,21.6,18.2,21.5,18.1z"/>
	<path class="st0" d="M19.8,36.9h-3.1c-6.9,0-12.5-5.6-12.5-12.5l0,0h28.1l0,0C32.3,31.3,26.7,36.9,19.8,36.9z"/>
	<path class="st0" d="M34.4,21H2.2c-0.9,0-1.7,0.8-1.7,1.7l0,0c0,0.9,0.8,1.7,1.7,1.7h32.1c0.9,0,1.7-0.8,1.7-1.7l0,0
		C36.1,21.7,35.3,21,34.4,21z"/>
	<path class="st0" d="M7.8,1.4C7.6,1.3,7.3,1.3,7.1,1.3l0,0c-1.6,0-2.9,1.2-2.9,2.8v16.8"/>
	<path class="st0" d="M15.7,2.8L9.4,9.1L8.2,7.9c-1.3-1.3-1.3-3.3,0-4.6L10,1.5c1.3-1.3,3.3-1.3,4.6,0L15.7,2.8z"/>
	<path class="st0" d="M9.7,1.6L7.9,3.4L7.5,3.1c-0.4-0.4-0.4-1,0-1.3L8,1.3c0.4-0.4,1-0.4,1.3,0L9.7,1.6z"/>
</g>
</svg>
