<?xml version="1.0" encoding="utf-8"?>
<!-- Generator: Adobe Illustrator 23.1.0, SVG Export Plug-In . SVG Version: 6.00 Build 0)  -->
<svg version="1.1" id="Layer_1" xmlns="http://www.w3.org/2000/svg" xmlns:xlink="http://www.w3.org/1999/xlink" x="0px" y="0px"
	 viewBox="0 0 42.1 44.8" style="enable-background:new 0 0 42.1 44.8;" xml:space="preserve">
<style type="text/css">
	.st0{fill:none;stroke:#000000;stroke-width:1.5;stroke-miterlimit:10;}
	.st1{fill:none;stroke:#000000;stroke-miterlimit:10;}
</style>
<title>fb-web-35</title>
<path class="st0" d="M7.8,44.1v-42c0-0.7,0.6-1.3,1.3-1.3H33c0.7,0,1.3,0.6,1.3,1.3v42"/>
<polyline class="st0" points="12.8,44.1 12.8,5.8 29.4,5.8 29.4,44.1 "/>
<g>
	<g>
		<path d="M19.3,12.8h-3.5c-0.4,0-0.7-0.3-0.7-0.7v0c0-0.4,0.3-0.8,0.7-0.8h3.5c0.4,0,0.7,0.3,0.7,0.8v0
			C20.1,12.5,19.7,12.8,19.3,12.8z"/>
		<path d="M26.3,12.8h-3.5c-0.4,0-0.7-0.3-0.7-0.7v0c0-0.4,0.3-0.8,0.7-0.8h3.5c0.4,0,0.8,0.3,0.8,0.8v0
			C27.1,12.5,26.7,12.8,26.3,12.8z"/>
	</g>
	<path d="M19.3,19.8h-3.5c-0.4,0-0.7-0.3-0.7-0.8l0,0c0-0.4,0.3-0.8,0.7-0.8h3.5c0.4,0,0.7,0.3,0.7,0.8l0,0
		C20.1,19.5,19.7,19.8,19.3,19.8z"/>
	<path d="M26.3,19.8h-3.5c-0.4,0-0.7-0.3-0.7-0.8l0,0c0-0.4,0.3-0.8,0.7-0.8h3.5c0.4,0,0.8,0.3,0.8,0.8l0,0
		C27.1,19.5,26.7,19.8,26.3,19.8z"/>
	<path d="M19.3,26.8h-3.5c-0.4,0-0.7-0.3-0.7-0.7v0c0-0.4,0.3-0.8,0.7-0.8h3.5c0.4,0,0.7,0.3,0.7,0.8v0
		C20.1,26.5,19.7,26.8,19.3,26.8z"/>
	<path d="M26.3,26.8h-3.5c-0.4,0-0.7-0.3-0.7-0.7v0c0-0.4,0.3-0.8,0.7-0.8h3.5c0.4,0,0.8,0.3,0.8,0.8v0
		C27.1,26.5,26.7,26.8,26.3,26.8z"/>
</g>
<rect x="20.1" y="40.3" width="2" height="4"/>
<line class="st1" x1="0" y1="44.3" x2="42.1" y2="44.3"/>
</svg>
