<?xml version="1.0" encoding="utf-8"?>
<!-- Generator: Adobe Illustrator 23.0.1, SVG Export Plug-In . SVG Version: 6.00 Build 0)  -->
<svg version="1.1" id="Layer_1" xmlns="http://www.w3.org/2000/svg" xmlns:xlink="http://www.w3.org/1999/xlink" x="0px" y="0px"
	 viewBox="0 0 52 23.3" style="enable-background:new 0 0 52 23.3;" xml:space="preserve">
<style type="text/css">
	.st0{fill:none;stroke:#000000;stroke-miterlimit:10;}
	.st1{fill:none;stroke:#000000;stroke-linecap:round;stroke-linejoin:round;stroke-miterlimit:10;}
</style>
<g>
	<path d="M26.8,6.5h-1.5c-0.1,0-0.2-0.1-0.2-0.2v0c0-0.1,0.1-0.2,0.2-0.2h1.5C26.9,6,27,6.1,27,6.3v0C27,6.4,26.9,6.5,26.8,6.5z"/>
	<path d="M33.2,6.5h-1.5c-0.1,0-0.2-0.1-0.2-0.2v0c0-0.1,0.1-0.2,0.2-0.2h1.5c0.1,0,0.2,0.1,0.2,0.2l0,0C33.4,6.4,33.3,6.5,33.2,6.5
		z"/>
	<path d="M41.8,6.5h-1.5c-0.1,0-0.2-0.1-0.2-0.2v0c0-0.1,0.1-0.2,0.2-0.2h1.5C41.9,6,42,6.1,42,6.3v0C42,6.4,41.9,6.5,41.8,6.5z"/>
	<path d="M36.7,4V2.4c0-0.1,0.1-0.2,0.2-0.2h0c0.1,0,0.2,0.1,0.2,0.2V4c0,0.1-0.1,0.2-0.2,0.2h0C36.8,4.2,36.7,4.1,36.7,4z"/>
	<path d="M23.2,6.5h-1.5c-0.1,0-0.2-0.1-0.2-0.2v0c0-0.1,0.1-0.2,0.2-0.2h1.5c0.1,0,0.2,0.1,0.2,0.2l0,0C23.4,6.4,23.3,6.5,23.2,6.5
		z"/>
	<path class="st0" d="M50.2,22.8H2.3c-0.7,0-1.3-0.6-1.3-1.3V8.9c0-0.7,0.6-1.3,1.3-1.3h47.9c0.7,0,1.3,0.6,1.3,1.3v12.6
		C51.5,22.2,50.9,22.8,50.2,22.8z"/>
	<line class="st0" x1="9.7" y1="7.5" x2="9.7" y2="22.5"/>
	<line class="st0" x1="17.9" y1="7.5" x2="17.9" y2="22.5"/>
	<line class="st0" x1="51.5" y1="11.4" x2="17.9" y2="11.4"/>
	<line class="st0" x1="17.9" y1="17.1" x2="51.5" y2="17.1"/>
	<line class="st0" x1="34.3" y1="11.4" x2="34.3" y2="22.5"/>
	<polyline class="st0" points="34.3,7.5 34.3,4.8 39.3,4.8 39.3,7.5 	"/>
	<path class="st1" d="M24.3,7.5V2.4c0-1.1,0.9-1.9,1.9-1.9h0c1.1,0,1.9,0.9,1.9,1.9"/>
	<path class="st1" d="M0,0.3"/>
</g>
</svg>
