<?xml version="1.0" encoding="utf-8"?>
<!-- Generator: Adobe Illustrator 23.0.1, SVG Export Plug-In . SVG Version: 6.00 Build 0)  -->
<svg version="1.1" id="Layer_1" xmlns="http://www.w3.org/2000/svg" xmlns:xlink="http://www.w3.org/1999/xlink" x="0px" y="0px"
	 viewBox="0 0 44.7 39" style="enable-background:new 0 0 44.7 39;" xml:space="preserve">
<style type="text/css">
	.st0{fill:none;stroke:#000000;stroke-linecap:round;stroke-linejoin:round;stroke-miterlimit:10;}
</style>
<line class="st0" x1="2.8" y1="38.5" x2="43" y2="38.5"/>
<g>
	<g>
		<g>
			<circle class="st0" cx="8.9" cy="17.4" r="8.4"/>
			<line class="st0" x1="8.9" y1="15.5" x2="8.9" y2="38.5"/>
			<polyline class="st0" points="5.1,18.2 8.9,22 8.9,22 12.7,18.2 			"/>
		</g>
		<g>
			<circle class="st0" cx="35.8" cy="17.4" r="8.4"/>
			<line class="st0" x1="35.8" y1="15.5" x2="35.8" y2="38.5"/>
			<polyline class="st0" points="31.9,18.2 35.7,22 35.8,22 39.6,18.2 			"/>
		</g>
	</g>
	<g>
		<path d="M22.1,1.7V0.1c0-0.1,0-0.1,0.1-0.1h0.2c0.1,0,0.1,0,0.1,0.1v1.6c0,0.1,0,0.1-0.1,0.1h-0.2C22.2,1.8,22.1,1.8,22.1,1.7z"/>
		<path d="M25.7,3l1.1-1.1c0,0,0.1,0,0.2,0L27.1,2c0,0,0,0.1,0,0.2L26,3.3c0,0-0.1,0-0.2,0l-0.1-0.1C25.7,3.1,25.7,3.1,25.7,3z"/>
		<path d="M27.3,6.5h1.6c0.1,0,0.1,0,0.1,0.1v0.2c0,0.1,0,0.1-0.1,0.1h-1.6c-0.1,0-0.1,0-0.1-0.1V6.6C27.2,6.5,27.2,6.5,27.3,6.5z"
			/>
		<path d="M26,10l1.1,1.1c0,0,0,0.1,0,0.2L27,11.4c0,0-0.1,0-0.2,0l-1.1-1.1c0,0,0-0.1,0-0.2l0.1-0.1C25.9,10,25.9,10,26,10z"/>
		<path d="M22.5,11.6v1.6c0,0.1,0,0.1-0.1,0.1h-0.2c-0.1,0-0.1,0-0.1-0.1v-1.6c0-0.1,0-0.1,0.1-0.1h0.2
			C22.5,11.5,22.5,11.5,22.5,11.6z"/>
		<path d="M19,10.3l-1.1,1.1c0,0-0.1,0-0.2,0l-0.1-0.1c0,0,0-0.1,0-0.2l1.1-1.1c0,0,0.1,0,0.2,0l0.1,0.1C19,10.2,19,10.2,19,10.3z"
			/>
		<path d="M17.4,6.8h-1.6c-0.1,0-0.1,0-0.1-0.1V6.6c0-0.1,0-0.1,0.1-0.1h1.6c0.1,0,0.1,0,0.1,0.1v0.2C17.5,6.8,17.5,6.8,17.4,6.8z"
			/>
		<path d="M18.7,3.3l-1.1-1.1c0,0,0-0.1,0-0.2l0.1-0.1c0,0,0.1,0,0.2,0L19,3c0,0,0,0.1,0,0.2l-0.1,0.1C18.8,3.3,18.8,3.3,18.7,3.3z"
			/>
		<circle class="st0" cx="22.3" cy="6.7" r="3.8"/>
	</g>
</g>
</svg>
