<?xml version="1.0" encoding="utf-8"?>
<!-- Generator: Adobe Illustrator 23.0.1, SVG Export Plug-In . SVG Version: 6.00 Build 0)  -->
<svg version="1.1" id="Layer_1" xmlns="http://www.w3.org/2000/svg" xmlns:xlink="http://www.w3.org/1999/xlink" x="0px" y="0px"
	 viewBox="0 0 98 51" style="enable-background:new 0 0 98 51;" xml:space="preserve">
<style type="text/css">
	.st0{fill:none;stroke:#000000;stroke-miterlimit:10;}
</style>
<g>
	<path class="st0" d="M21,50.5L21,50.5c-4.1,0-7.5-3.4-7.5-7.5V8c0-4.1,3.4-7.5,7.5-7.5h0c4.1,0,7.5,3.4,7.5,7.5v35
		C28.5,47.1,25.1,50.5,21,50.5z"/>
	<path class="st0" d="M13.5,41H6.3c-3.2,0-5.8-2.6-5.8-5.8V15.8c0-3.2,2.6-5.8,5.8-5.8h7.2V41z"/>
	<path class="st0" d="M77,0.5L77,0.5c4.1,0,7.5,3.4,7.5,7.5v35c0,4.1-3.4,7.5-7.5,7.5h0c-4.1,0-7.5-3.4-7.5-7.5V8
		C69.5,3.9,72.9,0.5,77,0.5z"/>
	<path class="st0" d="M84.5,10h7.2c3.2,0,5.8,2.6,5.8,5.8v19.4c0,3.2-2.6,5.8-5.8,5.8h-7.2V10z"/>
	<g>
		<line class="st0" x1="28.5" y1="16" x2="69.5" y2="16"/>
		<line class="st0" x1="28.5" y1="35" x2="69.5" y2="35"/>
	</g>
</g>
</svg>
