<?xml version="1.0" encoding="utf-8"?>
<!-- Generator: Adobe Illustrator 23.0.1, SVG Export Plug-In . SVG Version: 6.00 Build 0)  -->
<svg version="1.1" id="Layer_1" xmlns="http://www.w3.org/2000/svg" xmlns:xlink="http://www.w3.org/1999/xlink" x="0px" y="0px"
	 viewBox="0 0 97 51" style="enable-background:new 0 0 97 51;" xml:space="preserve">
<style type="text/css">
	.st0{fill:none;stroke:#000000;stroke-miterlimit:10;}
</style>
<g>
	<path class="st0" d="M83.5,41.5h-70V6.4c0-3.3,2.6-5.9,5.9-5.9h58.2c3.3,0,5.9,2.6,5.9,5.9V41.5z"/>
	<path class="st0" d="M13.5,41.5h-13V24.1c0-3.7,3-6.6,6.6-6.6h6.4V41.5z"/>
	<path class="st0" d="M17.2,50.5h-6.4c-0.7,0-1.3-0.6-1.3-1.3v-7.7h9v7.7C18.5,49.9,17.9,50.5,17.2,50.5z"/>
	<path class="st0" d="M87.2,50.5h-6.4c-0.7,0-1.3-0.6-1.3-1.3v-7.7h9v7.7C88.5,49.9,87.9,50.5,87.2,50.5z"/>
	<path class="st0" d="M83.5,41.5h13V24.1c0-3.7-3-6.6-6.6-6.6h-6.4V41.5z"/>
	<g>
		<line class="st0" x1="48.5" y1="0.5" x2="48.5" y2="28.5"/>
		<line class="st0" x1="31.5" y1="1.5" x2="31.5" y2="28.5"/>
		<line class="st0" x1="65.5" y1="1.5" x2="65.5" y2="28.5"/>
	</g>
	<line class="st0" x1="13.5" y1="28.5" x2="83.5" y2="28.5"/>
</g>
</svg>
