<?xml version="1.0" encoding="utf-8"?>
<!-- Generator: Adobe Illustrator 23.0.1, SVG Export Plug-In . SVG Version: 6.00 Build 0)  -->
<svg version="1.1" id="Layer_1" xmlns="http://www.w3.org/2000/svg" xmlns:xlink="http://www.w3.org/1999/xlink" x="0px" y="0px"
	 viewBox="0 0 54.3 37.6" style="enable-background:new 0 0 54.3 37.6;" xml:space="preserve">
<style type="text/css">
	.st0{fill:none;stroke:#000000;stroke-miterlimit:10;}
	.st1{fill:none;stroke:#000000;stroke-linecap:round;stroke-linejoin:round;stroke-miterlimit:10;}
</style>
<g>
	<g>
		<path class="st0" d="M6.2,35.1H3.7c-0.3,0-0.5-0.2-0.5-0.5v-3h3.5v3C6.7,34.9,6.5,35.1,6.2,35.1z"/>
		<path class="st0" d="M35.8,35.1h-2.5c-0.3,0-0.5-0.2-0.5-0.5v-3h3.5v3C36.3,34.9,36.1,35.1,35.8,35.1z"/>
	</g>
	<g>
		<path class="st0" d="M34.2,18.8H5.4v-10c0-0.7,0.6-1.3,1.3-1.3h26.2c0.7,0,1.3,0.6,1.3,1.3V18.8z"/>
		<g>
			<path class="st0" d="M17,18.8h-7v-4.5c0-0.7,0.6-1.3,1.3-1.3h4.4c0.7,0,1.3,0.6,1.3,1.3V18.8z"/>
			<path class="st0" d="M29.5,18.8h-7v-4.5c0-0.7,0.6-1.3,1.3-1.3h4.4c0.7,0,1.3,0.6,1.3,1.3C29.5,14.3,29.5,18.8,29.5,18.8z"/>
		</g>
		<path class="st0" d="M37.7,31.6H1.8c-0.7,0-1.3-0.6-1.3-1.3v-3.5c0-4.4,3.6-8,8-8H31c4.4,0,8,3.6,8,8v3.5
			C39,31,38.4,31.6,37.7,31.6z"/>
		<line class="st0" x1="0.5" y1="25.2" x2="39" y2="25.2"/>
	</g>
</g>
<g>
	<line class="st1" x1="45.8" y1="13.7" x2="45.8" y2="37.1"/>
	<path class="st1" d="M50.4,0.5h-9.3c-0.2,0-0.4,0.2-0.5,0.4l-2.9,12.2c-0.1,0.3,0.2,0.6,0.5,0.6h15.1c0.3,0,0.6-0.3,0.5-0.6
		L50.9,0.9C50.9,0.7,50.7,0.5,50.4,0.5z"/>
	<g>
		<line class="st1" x1="45.8" y1="0.5" x2="41.9" y2="13.7"/>
		<line class="st1" x1="45.8" y1="0.5" x2="49.6" y2="13.7"/>
	</g>
</g>
</svg>
