<?xml version="1.0" encoding="utf-8"?>
<!-- Generator: Adobe Illustrator 23.0.1, SVG Export Plug-In . SVG Version: 6.00 Build 0)  -->
<svg version="1.1" id="Layer_1" xmlns="http://www.w3.org/2000/svg" xmlns:xlink="http://www.w3.org/1999/xlink" x="0px" y="0px"
	 viewBox="0 0 36.6 37.3" style="enable-background:new 0 0 36.6 37.3;" xml:space="preserve">
<style type="text/css">
	.st0{fill:none;stroke:#000000;stroke-linecap:round;stroke-linejoin:round;stroke-miterlimit:10;}
</style>
<g>
	<path d="M17.4,6.3l-2.1-2.1c-0.1-0.1-0.1-0.2,0-0.3v0c0.1-0.1,0.2-0.1,0.3,0l2.1,2.1c0.1,0.1,0.1,0.2,0,0.3v0
		C17.6,6.3,17.4,6.3,17.4,6.3z"/>
	<path d="M20.4,9.3l-2.1-2.1c-0.1-0.1-0.1-0.2,0-0.3l0,0c0.1-0.1,0.2-0.1,0.3,0L20.8,9c0.1,0.1,0.1,0.2,0,0.3h0
		C20.7,9.4,20.5,9.4,20.4,9.3z"/>
	<path d="M23.5,12.4l-2.1-2.1c-0.1-0.1-0.1-0.2,0-0.3l0,0c0.1-0.1,0.2-0.1,0.3,0l2.1,2.1c0.1,0.1,0.1,0.2,0,0.3l0,0
		C23.8,12.5,23.6,12.5,23.5,12.4z"/>
	<path d="M14.8,8.8l-2.1-2.1c-0.1-0.1-0.1-0.2,0-0.3l0,0c0.1-0.1,0.2-0.1,0.3,0l2.1,2.1c0.1,0.1,0.1,0.2,0,0.3h0
		C15.1,8.9,14.9,8.9,14.8,8.8z"/>
	<path d="M17.9,11.9l-2.1-2.1c-0.1-0.1-0.1-0.2,0-0.3h0c0.1-0.1,0.2-0.1,0.3,0l2.1,2.1c0.1,0.1,0.1,0.2,0,0.3l0,0
		C18.2,12,18,12,17.9,11.9z"/>
	<path d="M21,15l-2.1-2.1c-0.1-0.1-0.1-0.2,0-0.3l0,0c0.1-0.1,0.2-0.1,0.3,0l2.1,2.1c0.1,0.1,0.1,0.2,0,0.3l0,0
		C21.2,15,21.1,15,21,15z"/>
	<path d="M12.3,11.3l-2.1-2.1c-0.1-0.1-0.1-0.2,0-0.3l0,0c0.1-0.1,0.2-0.1,0.3,0l2.1,2.1c0.1,0.1,0.1,0.2,0,0.3l0,0
		C12.5,11.4,12.4,11.4,12.3,11.3z"/>
	<path d="M15.4,14.4l-2.1-2.1c-0.1-0.1-0.1-0.2,0-0.3l0,0c0.1-0.1,0.2-0.1,0.3,0l2.1,2.1c0.1,0.1,0.1,0.2,0,0.3v0
		C15.6,14.5,15.5,14.5,15.4,14.4z"/>
	<path d="M18.5,17.5l-2.1-2.1c-0.1-0.1-0.1-0.2,0-0.3v0c0.1-0.1,0.2-0.1,0.3,0l2.1,2.1c0.1,0.1,0.1,0.2,0,0.3l0,0
		C18.7,17.6,18.6,17.6,18.5,17.5z"/>
	<path d="M17.9,9.3l-2.1-2.1c-0.1-0.1-0.1-0.2,0-0.3l0,0c0.1-0.1,0.2-0.1,0.3,0L18.2,9c0.1,0.1,0.1,0.2,0,0.3l0,0
		C18.1,9.4,17.9,9.4,17.9,9.3z"/>
	<path d="M20.9,12.4l-2.1-2.1c-0.1-0.1-0.1-0.2,0-0.3v0c0.1-0.1,0.2-0.1,0.3,0l2.1,2.1c0.1,0.1,0.1,0.2,0,0.3l0,0
		C21.2,12.5,21,12.5,20.9,12.4z"/>
	<path d="M24,15.4l-2.1-2.1c-0.1-0.1-0.1-0.2,0-0.3v0c0.1-0.1,0.2-0.1,0.3,0l2.1,2.1c0.1,0.1,0.1,0.2,0,0.3l0,0
		C24.3,15.5,24.1,15.5,24,15.4z"/>
	<path d="M15.3,11.8l-2.1-2.1c-0.1-0.1-0.1-0.2,0-0.3l0,0c0.1-0.1,0.2-0.1,0.3,0l2.1,2.1c0.1,0.1,0.1,0.2,0,0.3v0
		C15.6,11.9,15.4,11.9,15.3,11.8z"/>
	<path d="M18.4,14.9l-2.1-2.1c-0.1-0.1-0.1-0.2,0-0.3l0,0c0.1-0.1,0.2-0.1,0.3,0l2.1,2.1c0.1,0.1,0.1,0.2,0,0.3v0
		C18.7,15,18.5,15,18.4,14.9z"/>
	<path d="M21.5,18l-2.1-2.1c-0.1-0.1-0.1-0.2,0-0.3v0c0.1-0.1,0.2-0.1,0.3,0l2.1,2.1c0.1,0.1,0.1,0.2,0,0.3l0,0
		C21.8,18.1,21.6,18.1,21.5,18z"/>
	<path class="st0" d="M19.8,36.8h-3.1c-6.9,0-12.5-5.6-12.5-12.5v0h28.1v0C32.3,31.2,26.7,36.8,19.8,36.8z"/>
	<path class="st0" d="M34.4,20.9H2.2c-0.9,0-1.7,0.8-1.7,1.7v0c0,0.9,0.8,1.7,1.7,1.7h32.1c0.9,0,1.7-0.8,1.7-1.7v0
		C36.1,21.6,35.3,20.9,34.4,20.9z"/>
	<path class="st0" d="M7.8,1.3C7.6,1.2,7.3,1.2,7.1,1.2h0C5.5,1.2,4.2,2.4,4.2,4v16.8"/>
	<path class="st0" d="M15.7,2.7L9.4,9L8.2,7.8c-1.3-1.3-1.3-3.3,0-4.6l1.8-1.8c1.3-1.3,3.3-1.3,4.6,0L15.7,2.7z"/>
	<path class="st0" d="M9.7,1.5L7.9,3.3L7.5,3c-0.4-0.4-0.4-1,0-1.3l0.5-0.5c0.4-0.4,1-0.4,1.3,0L9.7,1.5z"/>
</g>
</svg>
