<?xml version="1.0" encoding="iso-8859-1"?>
<!-- Generator: Adobe Illustrator 19.0.0, SVG Export Plug-In . SVG Version: 6.00 Build 0)  -->
<svg version="1.1" id="Layer_1" xmlns="http://www.w3.org/2000/svg" xmlns:xlink="http://www.w3.org/1999/xlink" x="0px" y="0px"
	 viewBox="0 0 512 512" style="enable-background:new 0 0 512 512;" xml:space="preserve">
<g>
	<g>
		<path d="M384,0H128C98.603,0,74.667,23.936,74.667,53.333V480c0,5.888,4.779,10.667,10.667,10.667H96v10.667
			c0,5.888,4.779,10.667,10.667,10.667s10.667-4.779,10.667-10.667v-10.667h277.333v10.667c0,5.888,4.779,10.667,10.667,10.667
			c5.888,0,10.667-4.779,10.667-10.667v-10.667h10.667c5.888,0,10.667-4.779,10.667-10.667V53.333C437.333,23.936,413.397,0,384,0z
			 M245.333,469.333H96v-416c0-17.643,14.357-32,32-32h117.333V469.333z M416,469.333H266.667v-448H384c17.643,0,32,14.357,32,32
			V469.333z"/>
	</g>
</g>
<g>
	<g>
		<path d="M213.333,213.333c-5.888,0-10.667,4.779-10.667,10.667v21.333c0,5.888,4.779,10.667,10.667,10.667
			S224,251.221,224,245.333V224C224,218.112,219.221,213.333,213.333,213.333z"/>
	</g>
</g>
<g>
	<g>
		<path d="M298.667,213.333c-5.888,0-10.667,4.779-10.667,10.667v21.333c0,5.888,4.779,10.667,10.667,10.667
			s10.667-4.779,10.667-10.667V224C309.333,218.112,304.555,213.333,298.667,213.333z"/>
	</g>
</g>
<g>
</g>
<g>
</g>
<g>
</g>
<g>
</g>
<g>
</g>
<g>
</g>
<g>
</g>
<g>
</g>
<g>
</g>
<g>
</g>
<g>
</g>
<g>
</g>
<g>
</g>
<g>
</g>
<g>
</g>
</svg>
