<svg id="icons" enable-background="new 0 0 64 64" height="512" viewBox="0 0 64 64" width="512" xmlns="http://www.w3.org/2000/svg"><path d="m63 11.5h-62c-.553 0-1 .448-1 1v36.001c0 .553.447 1 1 1h3.002v1.999c0 .553.447 1 1 1h10c.553 0 1-.447 1-1v-1.999h31.996v1.999c0 .553.447 1 1 1h10c.553 0 1-.447 1-1v-1.999h3.002c.553 0 1-.447 1-1v-36.001c0-.552-.447-1-1-1zm-48.998 39h-8v-.999h8zm43.996 0h-8v-.999h8zm4.002-2.999h-60v-34.001h60z"/><path d="m5.001 45.5h41.999c.553 0 1-.447 1-1v-28c0-.552-.447-1-1-1h-41.999c-.553 0-1 .448-1 1v28c0 .553.447 1 1 1zm39.999-17.999h1v6.001h-1zm-38.999-10.001h39.999v8.001h-2c-.553 0-1 .448-1 1v8.001c0 .553.447 1 1 1h2v7.998h-39.999z"/><path d="m51.028 29.504h-.011c-.552 0-.994.448-.994 1s.452 1 1.005 1c.552 0 1-.448 1-1s-.448-1-1-1z"/><path d="m55.029 29.504h-.011c-.552 0-.994.448-.994 1s.452 1 1.005 1c.552 0 1-.448 1-1s-.448-1-1-1z"/><path d="m59.03 29.504h-.01c-.552 0-.994.448-.994 1s.452 1 1.005 1c.552 0 1-.448 1-1s-.449-1-1.001-1z"/><path d="m51.028 33.505h-.011c-.552 0-.994.447-.994 1s.452 1 1.005 1c.552 0 1-.447 1-1s-.448-1-1-1z"/><path d="m55.029 33.505h-.011c-.552 0-.994.447-.994 1s.452 1 1.005 1c.552 0 1-.447 1-1s-.448-1-1-1z"/><path d="m59.03 33.505h-.01c-.552 0-.994.447-.994 1s.452 1 1.005 1c.552 0 1-.447 1-1s-.449-1-1.001-1z"/><path d="m51.028 37.507h-.011c-.552 0-.994.447-.994 1s.452 1 1.005 1c.552 0 1-.447 1-1s-.448-1-1-1z"/><path d="m55.029 37.507h-.011c-.552 0-.994.447-.994 1s.452 1 1.005 1c.552 0 1-.447 1-1s-.448-1-1-1z"/><path d="m59.03 37.507h-.01c-.552 0-.994.447-.994 1s.452 1 1.005 1c.552 0 1-.447 1-1s-.449-1-1.001-1z"/><path d="m50.998 27.504h8.001c.553 0 1-.448 1-1v-5.002c0-.552-.447-1-1-1h-8.001c-.553 0-1 .448-1 1v5.002c0 .552.447 1 1 1zm1-5.002h6.001v3.002h-6.001z"/></svg>