<?xml version="1.0" encoding="utf-8"?>
<!-- Generator: Adobe Illustrator 23.0.1, SVG Export Plug-In . SVG Version: 6.00 Build 0)  -->
<svg version="1.1" id="_x3C_Layer_x3E_" xmlns="http://www.w3.org/2000/svg" xmlns:xlink="http://www.w3.org/1999/xlink" x="0px"
	 y="0px" viewBox="0 0 2588.9 1151.8" style="enable-background:new 0 0 2588.9 1151.8;" xml:space="preserve">
<style type="text/css">
	.st0{fill:#25D366;}
</style>
<path d="M191.8,182.7c20.4,0,40.8,0,61.3,0c10.9,0,15.6,5.2,17.2,16.1c5.1,33.8,11.5,67.3,16.8,101c6.8,43.1,12.6,86.3,19.6,129.3
	c8.9,54.9,18.8,109.7,27.9,164.6c7.7,46.1,14.6,92.3,22.3,138.4c5.1,30.8,11,61.4,16.1,92.2c3,18,5.1,36.2,7.7,54.3
	c2.1,14.7-4.7,19.2-18.7,18.8c-26.4-0.8-52.8-0.9-79.2,0c-15.1,0.6-20.1-6.8-22.1-19.9c-6.4-42.8-13.6-85.4-19.8-128.2
	c-1.6-10.8-6.4-14.2-16.6-14c-22.4,0.4-44.8,0.5-67.2,0c-10.1-0.2-15,3.4-17.8,13.4c-4.8,17.4-5,35.4-8.3,53
	c-5,26.7-8.9,53.8-13,80.7c-1.6,10.5-5.8,14.9-16.2,14.8c-29.4-0.2-58.8-0.2-88.1,0c-11,0.1-15.2-4-13.2-15.5
	C9.4,831.4,18,780.9,26.3,730.4c6.9-42.6,12.8-85.3,19.8-127.9C53,560,61,517.6,68,475c7-42.1,13.1-84.3,19.9-126.4
	c6.9-42.7,14.3-85.3,21.5-127.9c0.3-2,1.1-3.9,1.3-5.8c2.9-36.4,7.1-32.1,39.2-32.3C163.9,182.5,177.8,182.6,191.8,182.7
	C191.8,182.6,191.8,182.7,191.8,182.7z M191.7,392.2c-0.6,0-1.2,0-1.7,0c-4.6,36.8-8.7,73.6-13.8,110.2
	c-4.8,34.8-10.7,69.5-16,104.2c-1.5,9.8,1.8,15.2,12.7,14.8c10.9-0.4,21.9,0.1,32.8-0.1c15.4-0.2,19.4-4.2,14.8-19
	c-6-19.7-5.9-40.2-9.3-60.2C202.9,492.6,198,442.3,191.7,392.2z"/>
<path d="M1029.1,182.7c20.4,0,40.8,0.1,61.2,0c11.5-0.1,16.9,5.5,18.7,16.7c9.7,59.7,20.1,119.2,29.6,178.9
	c8.9,55.8,16.7,111.8,25.7,167.6c8.9,54.7,19.1,109.2,28,163.9c9.2,56.3,17.8,112.8,26.3,169.2c2.4,16.1,0.5,18-16.3,18.1
	c-26.9,0.1-53.8-0.8-80.7,0.4c-15.9,0.7-21.5-7.5-23.4-20.7c-4.6-32.4-8.7-64.8-13.2-97.2c-1.7-11.8-6.4-23-6.1-35.2
	c0.2-6.1-4.1-8.8-9.8-8.8c-26.4-0.1-52.8,0-79.2-0.1c-9.3,0-11.6,6.6-12.8,13.7c-3,18.2-5.4,36.4-8.4,54.5
	c-4.4,26.5-9.6,52.8-13.4,79.4c-1.5,10.9-6.6,14.2-16.7,14.1c-28.4-0.3-56.8-0.4-85.1,0c-12.8,0.2-16-4.4-14.2-17.2
	c7.1-48.5,15.9-96.6,23.5-145c8.7-55.4,18.9-110.5,27.8-165.8c7.1-44.1,15.1-88,22.3-132.1c5-30.3,9.2-60.8,14.1-91.2
	c4.4-27.9,9.2-55.8,13.8-83.7c3.4-20.5,7.5-41,9.8-61.7c1.4-13.2,7.2-18.4,20.1-18.2C990.3,182.9,1009.7,182.6,1029.1,182.7
	C1029.1,182.7,1029.1,182.7,1029.1,182.7z M1029.9,388.1c-3.1,23.9-5.7,46-8.8,68.1c-5,34.7-11.5,69.3-15.1,104.2
	c-1.6,15.3-4.1,30.3-6.5,45.5c-1.6,10.2,2.2,16.1,13.7,15.7c12.4-0.5,24.8-0.2,37.3-0.1c8.5,0,11.8-4.1,10.2-12.3
	c-5.8-29.2-7.7-58.9-12.3-88.2C1041.5,477.4,1036.5,433.7,1029.9,388.1z"/>
<path d="M461.4,539.5c0-110,0-220.1,0-330.1c0-24.2,2.5-26.7,26.2-26.8c22.9-0.1,45.8-0.1,68.7,0c20.1,0.1,21.9,1.8,21.9,22.4
	c0,141.4,0,282.8,0,424.2c0,42.8,0.5,85.6-0.3,128.5c-0.3,14.8,4,20.2,19.4,19.9c45.8-0.9,91.6-0.4,137.4-0.3
	c18.1,0,21.9,3.7,22.1,21.9c0.3,25.9,0.3,51.8,0,77.7c-0.2,17.8-2.9,20.3-21.3,20.3c-83.6,0.1-167.3,0.1-250.9,0
	c-20.9,0-23.2-2.2-23.2-23.1C461.3,762.6,461.4,651,461.4,539.5z"/>
<path d="M2474.9,540.6c0-111.5,0-223,0-334.4c0-22.8,0.7-23.5,23.4-23.6c23.4,0,46.8-0.2,70.2,0.1c18,0.2,20.4,2.7,20.4,21.1
	c0,224.4,0,448.9,0,673.3c0,18-2,20-19.5,20.1c-25.4,0.2-50.8-0.6-76.1,0.3c-14.9,0.5-18.6-5.7-18.5-19.4c0.4-104,0.2-208,0.2-312
	C2474.9,557.5,2474.9,549.1,2474.9,540.6z"/>
<circle class="st0" cx="2073.2" cy="1063.1" r="88.8"/>
<circle class="st0" cx="1610.5" cy="1063.1" r="88.8"/>
<path class="st0" d="M2345.8,183.5c-36.8-0.3-73.7-0.3-110.5-0.1c-9.3,0.1-15.4,4.2-18.1,14.3c-9.7,36.5-20.1,72.7-30.3,109.1
	c-34.6,123-69.3,246.1-104,369.1c-4.5,16-9.6,31.8-14.4,47.6c-1.3-0.2-2.6-0.4-3.9-0.6c-2.5-8-5.2-16-7.5-24
	c-17.9-63.2-35.7-126.3-53.5-189.5c-19.4-68.9-38.6-137.9-57.9-206.8c-13.3-47.4-26.8-94.7-40-142.1c-4.4-15.7-14.2-24.8-30.2-27
	c-26.3-3.6-52.7-3-78.9-0.5c-18,1.7-27.8,12.7-32.2,30.3c-12.5,49.7-25.9,99.2-38.9,148.7c-18.7,71.1-37.7,142.2-56.3,213.4
	c-16.3,62.5-32.2,125.2-48.3,187.8c-1,3.7-0.7,9.5-5.3,9.6c-5.9,0.1-5.2-6.3-6.3-10.3c-22.1-76.9-44.1-153.9-66.1-230.9
	c-33.5-117.6-65.3-235.7-101.6-352.5c-11.5-37.2-21.2-75.6-39.1-110.9C1396.2,6,1388.8,0,1374.9,0c-175.8,0.3-351.6,0.3-527.4,0
	c-14.6,0-19.1,5.6-18.8,19.5c0.6,31.9,0.2,63.7,0.2,95.6c0,22,0.7,22.8,22.6,22.8c100.1,0,200.2,0,300.3,0c45.3,0,90.6,0.2,136-0.1
	c3.5,0,6.5,0.3,9,1.1l30.3,97l0,0c27.4,91.4,55.5,182.7,83,274.1c35.7,118.6,71,237.2,106.3,355.9c5.2,17.5,16.6,26.9,34.3,31.4
	c30.5,7.7,61.6,7.4,92.1,4.4c33.2-3.2,52-6.6,61-46.7c12-53.3,26.9-106,40.7-158.9c22.8-87.1,45.7-174.1,68.7-261.2
	c5.5-20.9,11.2-41.8,16.7-62.7c5.3,6.5,7,13,8.7,19.5c5.3,19.6,10.5,39.3,16.1,58.9c21.3,74.6,42.9,149.2,64,223.8
	c18.4,65,36.4,130.1,54.7,195.2c4.2,14.8,14.4,23.2,29.1,26.9c32.8,8.4,66.3,7.1,99.5,5.3c30-1.6,51-14.4,57.8-47.4
	c5.7-27.6,16.5-54.2,24.6-81.3c29.6-98.6,58.9-197.2,88.6-295.8c27.8-92.4,55.5-184.7,84-276.9
	C2360.9,187.8,2357.2,183.5,2345.8,183.5z"/>
</svg>
