<?xml version="1.0" encoding="utf-8"?>
<!-- Generator: Adobe Illustrator 23.0.1, SVG Export Plug-In . SVG Version: 6.00 Build 0)  -->
<svg version="1.1" id="Layer_1" xmlns="http://www.w3.org/2000/svg" xmlns:xlink="http://www.w3.org/1999/xlink" x="0px" y="0px"
	 viewBox="0 0 42.3 38.4" style="enable-background:new 0 0 42.3 38.4;" xml:space="preserve">
<style type="text/css">
	.st0{fill:none;stroke:#000000;stroke-miterlimit:10;}
	.st1{fill:none;stroke:#000000;stroke-linecap:round;stroke-linejoin:round;stroke-miterlimit:10;}
</style>
<g>
	<path class="st0" d="M0.5,6.5v24c0,0.2,0.2,0.5,0.4,0.6l19.8,6.9c0.1,0,0.3,0,0.4,0L41.4,31c0.2-0.1,0.4-0.3,0.4-0.6V6.3
		c0-0.3-0.2-0.5-0.4-0.6l-20-5.2c-0.1,0-0.2,0-0.3,0l-20,5.4C0.7,6,0.5,6.2,0.5,6.5z"/>
	<path class="st0" d="M41.8,6c-0.4,0-0.2,0.1-0.4,0.1l-20.3,5.1c-0.1,0-0.3,0-0.4,0L0.9,6.2C0.7,6.1,0.5,6,0.5,6"/>
	<line class="st0" x1="20.9" y1="38" x2="20.9" y2="11.3"/>
	<polyline class="st1" points="11.8,3 31.4,8.7 31.4,16.2 	"/>
</g>
</svg>
