<?xml version="1.0" encoding="utf-8"?>
<!-- Generator: Adobe Illustrator 23.0.1, SVG Export Plug-In . SVG Version: 6.00 Build 0)  -->
<svg version="1.1" id="Layer_1"  height="15px" xmlns="http://www.w3.org/2000/svg" xmlns:xlink="http://www.w3.org/1999/xlink" x="0px" y="0px"
	 viewBox="0 0 86.5 86.9" style="enable-background:new 0 0 86.5 86.9;" xml:space="preserve">
<style type="text/css">
	.st0{fill:#91D44B;stroke:#91D44B;stroke-miterlimit:10;}
</style>
<path class="st0" d="M82.26,10.2C68.64,21.35,55.8,33.4,43.83,46.29c-4.59-4.13-9.23-8.21-14-12.12c-0.3-0.27-1.07,0.05-1.72,0.7
	s-1,1.43-0.71,1.73l0.07,0.09c4.61,5.66,9.37,11.17,14.28,16.53c1.18,1.3,3.19,1.39,4.49,0.21l0.22-0.21
	C60.2,40.64,73.02,27.08,84.81,12.64l0,0c0.24-0.33-0.08-1.1-0.74-1.77s-1.44-1-1.77-0.74L82.26,10.2z"/>
<path class="st0" d="M2.36,55.89c1.46,4.63,3.67,8.98,6.55,12.89c13.86,19.09,40.58,23.33,59.67,9.46
	c5.24-3.8,9.54-8.75,12.59-14.46c4.39-8.35,5.84-17.93,4.14-27.2c-0.09-1.02-0.98-1.77-2-1.68c-0.95,0.28-1.54,1.23-1.36,2.2v0.3
	c0.84,8.38-1.07,16.81-5.44,24.01c-4.33,7.06-10.86,12.51-18.59,15.5c-7.64,2.91-16.03,3.23-23.87,0.92
	c-7.78-2.3-14.58-7.11-19.34-13.68c-9.79-12.95-9.21-32.42,1.3-45c5.25-6.4,12.44-10.93,20.49-12.89
	c8.23-1.91,16.85-1.08,24.56,2.37l0,0c0.9,0.44,1.98,0.16,2.54-0.67c0.42-0.96-0.03-2.08-0.99-2.5c0,0,0,0-0.01,0l-0.28-0.15
	C53.97,0.93,44.4-0.51,35.14,1.2C15.58,4.92,1.21,21.68,0.53,41.57C0.36,46.41,0.98,51.25,2.36,55.89z"/>
</svg>
