<?xml version="1.0" encoding="utf-8"?>
<!-- Generator: Adobe Illustrator 23.0.1, SVG Export Plug-In . SVG Version: 6.00 Build 0)  -->
<svg version="1.1" id="Layer_1" xmlns="http://www.w3.org/2000/svg" xmlns:xlink="http://www.w3.org/1999/xlink" x="0px" y="0px"
	 viewBox="0 0 56.5 44.8" style="enable-background:new 0 0 56.5 44.8;" xml:space="preserve">
<style type="text/css">
	.st0{fill:none;stroke:#000000;stroke-width:1.5;stroke-miterlimit:10;}
	.st1{fill:none;stroke:#000000;stroke-miterlimit:10;}
</style>
<path class="st0" d="M8.4,44.1v-42c0-0.7,0.6-1.3,1.3-1.3h23.9c0.7,0,1.3,0.6,1.3,1.3v42"/>
<polyline class="st0" points="13.4,44.1 13.4,5.8 30,5.8 30,44.1 "/>
<path class="st0" d="M35.3,10.5h12.8c0.6,0,1,0.5,1,1v32.6"/>
<polyline class="st0" points="35.4,14.4 45.2,14.4 45.2,44.1 "/>
<g>
	<path d="M20,12.8h-3.5c-0.4,0-0.8-0.3-0.8-0.7v0c0-0.4,0.3-0.8,0.8-0.8H20c0.4,0,0.8,0.3,0.8,0.8v0C20.7,12.5,20.4,12.8,20,12.8z"
		/>
	<path d="M27,12.8h-3.5c-0.4,0-0.8-0.3-0.8-0.7v0c0-0.4,0.3-0.8,0.8-0.8H27c0.4,0,0.7,0.3,0.7,0.8v0C27.7,12.5,27.4,12.8,27,12.8z"
		/>
</g>
<path d="M20,19.8h-3.5c-0.4,0-0.8-0.3-0.8-0.8l0,0c0-0.4,0.3-0.8,0.8-0.8H20c0.4,0,0.8,0.3,0.8,0.8l0,0C20.7,19.5,20.4,19.8,20,19.8
	z"/>
<path d="M27,19.8h-3.5c-0.4,0-0.8-0.3-0.8-0.8l0,0c0-0.4,0.3-0.8,0.8-0.8H27c0.4,0,0.7,0.3,0.7,0.8l0,0C27.7,19.5,27.4,19.8,27,19.8
	z"/>
<path d="M42,19.8h-3.5c-0.4,0-0.8-0.3-0.8-0.8l0,0c0-0.4,0.3-0.8,0.8-0.8H42c0.4,0,0.8,0.3,0.8,0.8l0,0C42.7,19.5,42.4,19.8,42,19.8
	z"/>
<path d="M20,26.8h-3.5c-0.4,0-0.8-0.3-0.8-0.7v0c0-0.4,0.3-0.8,0.8-0.8H20c0.4,0,0.8,0.3,0.8,0.8v0C20.7,26.5,20.4,26.8,20,26.8z"/>
<path d="M26.7,27.1h-3c-0.6,0-1-0.4-1-1v0c0-0.6,0.4-1,1-1h3c0.6,0,1,0.4,1,1v0C27.7,26.6,27.3,27.1,26.7,27.1z"/>
<path d="M42,26.8h-3.5c-0.4,0-0.8-0.3-0.8-0.7v0c0-0.4,0.3-0.8,0.8-0.8H42c0.4,0,0.8,0.3,0.8,0.8v0C42.7,26.5,42.4,26.8,42,26.8z"/>
<rect x="20.5" y="40.3" width="2" height="4"/>
<line class="st1" x1="0" y1="44.3" x2="56.5" y2="44.3"/>
</svg>
