<?xml version="1.0" encoding="utf-8"?>
<!-- Generator: Adobe Illustrator 23.0.1, SVG Export Plug-In . SVG Version: 6.00 Build 0)  -->
<svg version="1.1" id="Layer_1" xmlns="http://www.w3.org/2000/svg" xmlns:xlink="http://www.w3.org/1999/xlink" x="0px" y="0px"
	 viewBox="0 0 38 51.5" style="enable-background:new 0 0 38 51.5;" xml:space="preserve">
<style type="text/css">
	.st0{fill:none;stroke:#000000;stroke-miterlimit:10;}
	.st1{stroke:#000000;stroke-miterlimit:10;}
</style>
<g>
	<g>
		<path d="M7,48.5H5l0,2c0,0.6,0.4,1,1,1h0c0.6,0,1-0.4,1-1L7,48.5z"/>
		<path d="M33,48.5h-2v2c0,0.6,0.4,1,1,1h0c0.6,0,1-0.4,1-1V48.5z"/>
	</g>
	<g>
		<path d="M13.8,27.6v-5.5c0-0.4,0.3-0.8,0.7-0.8h0c0.4,0,0.7,0.3,0.7,0.8v5.5c0,0.4-0.3,0.7-0.7,0.7h0
			C14.1,28.4,13.8,28.1,13.8,27.6z"/>
		<path d="M22.8,27.6v-5.5c0-0.4,0.3-0.8,0.8-0.8l0,0c0.4,0,0.8,0.3,0.8,0.8v5.5c0,0.4-0.3,0.7-0.8,0.7l0,0
			C23.1,28.4,22.8,28.1,22.8,27.6z"/>
	</g>
	<g>
		<path class="st0" d="M36.2,48.5H1.8c-0.7,0-1.3-0.6-1.3-1.3V1.8c0-0.7,0.6-1.3,1.3-1.3h34.4c0.7,0,1.3,0.6,1.3,1.3v45.4
			C37.5,47.9,36.9,48.5,36.2,48.5z"/>
		<line class="st1" x1="19" y1="0.5" x2="19" y2="48.5"/>
	</g>
</g>
</svg>
