<?xml version="1.0" encoding="utf-8"?>
<!-- Generator: Adobe Illustrator 23.0.1, SVG Export Plug-In . SVG Version: 6.00 Build 0)  -->
<svg version="1.1" width="16px" id="Layer_1" xmlns="http://www.w3.org/2000/svg" xmlns:xlink="http://www.w3.org/1999/xlink" x="0px" y="0px"
	 viewBox="0 0 18.5 18.8" style="enable-background:new 0 0 18.5 18.8;" xml:space="preserve">
<style type="text/css">
	.st0_2{fill:none;stroke:#000;stroke-miterlimit:10;}
</style>
<g>
	<path class="st0_2" d="M17.2,1.4L17.2,1.4c1.1,1.1,1.1,3,0,4.1l-8.8,8.8c-2,2-4.6,3.4-7.4,4l-0.3,0.1c-0.2,0-0.3-0.1-0.3-0.3l0,0
		c0.4-3.1,1.9-6.1,4.1-8.3L13,1.4C14.2,0.2,16,0.2,17.2,1.4z"/>
	<path class="st0_2" d="M11.1,3.2c0.6-0.6,2-0.1,3.1,1l0,0c1.1,1.1,1.6,2.5,1,3.1"/>
	<line class="st0_2" x1="5.9" y1="16.4" x2="2.3" y2="12.8"/>
</g>
</svg>
