<?xml version="1.0" encoding="utf-8"?>
<!-- Generator: Adobe Illustrator 23.0.1, SVG Export Plug-In . SVG Version: 6.00 Build 0)  -->
<svg version="1.1" id="Layer_1" xmlns="http://www.w3.org/2000/svg" xmlns:xlink="http://www.w3.org/1999/xlink" x="0px" y="0px"
	 viewBox="0 0 44 89" style="enable-background:new 0 0 44 89;" xml:space="preserve">
<style type="text/css">
	.st0{fill:none;stroke:#000000;stroke-miterlimit:10;}
</style>
<g>
	<path d="M37,17.6V8.1c0-0.4,0.3-0.7,0.7-0.7h0c0.4,0,0.8,0.3,0.8,0.7v9.5c0,0.4-0.3,0.7-0.8,0.7h0C37.4,18.4,37,18.1,37,17.6z"/>
	<path d="M37,43.6v-9.5c0-0.4,0.3-0.7,0.7-0.7h0c0.4,0,0.8,0.3,0.8,0.7v9.5c0,0.4-0.3,0.8-0.8,0.8h0C37.4,44.4,37,44.1,37,43.6z"/>
	<path class="st0" d="M42.2,88.5H1.8c-0.7,0-1.3-0.6-1.3-1.3V1.8c0-0.7,0.6-1.3,1.3-1.3h40.4c0.7,0,1.3,0.6,1.3,1.3v85.4
		C43.5,87.9,42.9,88.5,42.2,88.5z"/>
	<line class="st0" x1="0.5" y1="26.9" x2="43.5" y2="26.9"/>
</g>
</svg>
