<?xml version="1.0" encoding="utf-8"?>
<!-- Generator: Adobe Illustrator 23.0.1, SVG Export Plug-In . SVG Version: 6.00 Build 0)  -->
<svg version="1.1" id="Layer_1" xmlns="http://www.w3.org/2000/svg" xmlns:xlink="http://www.w3.org/1999/xlink" x="0px" y="0px"
	 viewBox="0 0 59.73 45.87" style="enable-background:new 0 0 59.73 45.87;" xml:space="preserve">
<style type="text/css">
	.st0{fill:none;stroke:#000000;stroke-width:1.5;stroke-miterlimit:10;}
	.st1{fill:none;stroke:#000000;stroke-width:1.5;stroke-linecap:round;stroke-linejoin:round;stroke-miterlimit:10;}
</style>
<path class="st0" d="M4.74,45.12V2.07c0-0.73,0.59-1.32,1.32-1.32h13.98c0.73,0,1.32,0.59,1.32,1.32v43.05"/>
<rect x="9.38" y="5.34" class="st0" width="7.35" height="8.61"/>
<circle class="st-fill" cx="13.96" cy="9.65" r="0.69"/>
<rect x="9.38" y="18.34" class="st0" width="7.35" height="8.61"/>
<circle class="st-fill" cx="13.96" cy="22.65" r="0.69"/>
<rect x="9.38" y="31.34" class="st0" width="7.35" height="8.61"/>
<circle class="st-fill" cx="13.96" cy="35.65" r="0.69"/>
<rect x="26.38" y="18.34" class="st0" width="7.35" height="8.61"/>
<circle class="st-fill" cx="30.96" cy="22.65" r="0.69"/>
<rect x="26.38" y="31.34" class="st0" width="7.35" height="8.61"/>
<circle class="st-fill" cx="30.96" cy="35.65" r="0.69"/>
<path class="st0" d="M21.62,14.46h15.3c0.73,0,1.32,0.59,1.32,1.32v29.33"/>
<path class="st0" d="M37.97,25.01h15.3c0.73,0,1.32,0.59,1.32,1.32v18.79"/>
<rect x="42.68" y="28.58" class="st0" width="7.35" height="5.34"/>
<circle class="st-fill" cx="46.35" cy="31.24" r="0.69"/>
<rect x="42.68" y="36.49" class="st0" width="7.35" height="5.34"/>
<circle class="st-fill" cx="46.35" cy="39.16" r="0.69"/>
<line class="st1" x1="0.75" y1="45.12" x2="58.98" y2="45.12"/>
</svg>
