<?xml version="1.0" encoding="utf-8"?>
<!-- Generator: Adobe Illustrator 23.0.1, SVG Export Plug-In . SVG Version: 6.00 Build 0)  -->
<svg version="1.1" id="Layer_1" xmlns="http://www.w3.org/2000/svg" xmlns:xlink="http://www.w3.org/1999/xlink" x="0px" y="0px"
	 viewBox="0 0 59.7 45.9" style="enable-background:new 0 0 59.7 45.9;" xml:space="preserve">
<style type="text/css">
	.st0{fill:none;stroke:#000000;stroke-width:1.5;stroke-miterlimit:10;}
	.st1{fill:none;stroke:#000000;stroke-width:1.5;stroke-linecap:round;stroke-linejoin:round;stroke-miterlimit:10;}
</style>
<path class="st0" d="M4.7,45.1v-43c0-0.7,0.6-1.3,1.3-1.3h14c0.7,0,1.3,0.6,1.3,1.3v43"/>
<rect x="9.4" y="5.3" class="st0" width="7.4" height="8.6"/>
<circle cx="14" cy="9.6" r="0.7"/>
<rect x="9.4" y="18.3" class="st0" width="7.4" height="8.6"/>
<circle cx="14" cy="22.6" r="0.7"/>
<rect x="9.4" y="31.3" class="st0" width="7.4" height="8.6"/>
<circle cx="14" cy="35.6" r="0.7"/>
<rect x="26.4" y="18.3" class="st0" width="7.4" height="8.6"/>
<circle cx="31" cy="22.6" r="0.7"/>
<rect x="26.4" y="31.3" class="st0" width="7.4" height="8.6"/>
<circle cx="31" cy="35.6" r="0.7"/>
<path class="st0" d="M21.6,14.5h15.3c0.7,0,1.3,0.6,1.3,1.3v29.3"/>
<path class="st0" d="M38,25h15.3c0.7,0,1.3,0.6,1.3,1.3v18.8"/>
<rect x="42.7" y="28.6" class="st0" width="7.4" height="5.3"/>
<circle cx="46.4" cy="31.2" r="0.7"/>
<rect x="42.7" y="36.5" class="st0" width="7.4" height="5.3"/>
<circle cx="46.4" cy="39.2" r="0.7"/>
<line class="st1" x1="0.8" y1="45.1" x2="59" y2="45.1"/>
</svg>
