<?xml version="1.0" encoding="utf-8"?>
<!-- Generator: Adobe Illustrator 23.0.1, SVG Export Plug-In . SVG Version: 6.00 Build 0)  -->
<svg version="1.1" id="Layer_1" xmlns="http://www.w3.org/2000/svg" xmlns:xlink="http://www.w3.org/1999/xlink" x="0px" y="0px"
	 viewBox="0 0 429.7 429.8" style="enable-background:new 0 0 429.7 429.8;" xml:space="preserve">
<g>
	<path d="M10,199h178.9c5.5,0,10-4.5,10-10V10c0-5.5-4.5-10-10-10H10C4.5,0,0,4.5,0,10v178.9C0,194.5,4.5,199,10,199z"/>
	<path d="M240.8,199h178.9c5.5,0,10-4.5,10-10V10c0-5.5-4.5-10-10-10H240.8c-5.5,0-10,4.5-10,10v178.9
		C230.8,194.5,235.3,199,240.8,199z"/>
	<path d="M10,429.8h178.9c5.5,0,10-4.5,10-10v-179c0-5.5-4.5-10-10-10H10c-5.5,0-10,4.5-10,10v178.9C0,425.3,4.5,429.8,10,429.8z"/>
	<path d="M240.8,429.8h178.9c5.5,0,10-4.5,10-10v-179c0-5.5-4.5-10-10-10H240.8c-5.5,0-10,4.5-10,10v178.9
		C230.8,425.3,235.3,429.8,240.8,429.8z"/>
</g>
</svg>
