<?xml version="1.0" encoding="utf-8"?>
<!-- Generator: Adobe Illustrator 23.0.1, SVG Export Plug-In . SVG Version: 6.00 Build 0)  -->
<svg version="1.1" id="Layer_1" xmlns="http://www.w3.org/2000/svg" xmlns:xlink="http://www.w3.org/1999/xlink" x="0px" y="0px"
	 viewBox="0 0 14 10" style="enable-background:new 0 0 14 10;" xml:space="preserve">
<circle cx="1" cy="1" r="1"/>
<circle cx="1" cy="5" r="1"/>
<circle cx="1" cy="9" r="1"/>
<path d="M13,2H5C4.45,2,4,1.55,4,1s0.45-1,1-1h8c0.55,0,1,0.45,1,1S13.55,2,13,2z"/>
<path d="M13,6H5C4.45,6,4,5.55,4,5s0.45-1,1-1h8c0.55,0,1,0.45,1,1S13.55,6,13,6z"/>
<path d="M13,10H5c-0.55,0-1-0.45-1-1s0.45-1,1-1h8c0.55,0,1,0.45,1,1S13.55,10,13,10z"/>
</svg>
