<?xml version="1.0" encoding="utf-8"?>
<!-- Generator: Adobe Illustrator 23.0.1, SVG Export Plug-In . SVG Version: 6.00 Build 0)  -->
<svg version="1.1" id="Layer_1" xmlns="http://www.w3.org/2000/svg" xmlns:xlink="http://www.w3.org/1999/xlink" x="0px" y="0px"
	 viewBox="0 0 39 39" style="enable-background:new 0 0 39 39;" xml:space="preserve">
<style type="text/css">
	.st0{fill:none;stroke:#000000;stroke-miterlimit:10;}
	.st1{fill:none;stroke:#000000;stroke-linecap:round;stroke-linejoin:round;stroke-miterlimit:10;}
</style>
<g>
	<g>
		<path class="st0" d="M38.5,37H15.1V24c0-3.9,3.1-7,7-7h9.4c3.9,0,7,3.1,7,7V37z"/>
		<path class="st0" d="M20.8,28.9h-5.8v-6.5h0c3.2,0,5.8,2.6,5.8,5.8V28.9z"/>
		<path class="st0" d="M32.7,28.9h5.8v-6.5h0c-3.2,0-5.8,2.6-5.8,5.8V28.9z"/>
		<line class="st0" x1="15.1" y1="28.9" x2="38.5" y2="28.9"/>
		<line class="st0" x1="15.1" y1="37" x2="15.1" y2="38.5"/>
		<line class="st0" x1="38.5" y1="37" x2="38.5" y2="38.5"/>
	</g>
	<g>
		<path class="st0" d="M13.6,4.7c0-2.3-1.9-4.2-4.2-4.2h0C7,0.5,5.1,2.4,5.1,4.7v33.8"/>
		<path class="st0" d="M18.2,12.8H9.3V9.1c0-2.4,2-4.4,4.4-4.4h0c2.4,0,4.4,2,4.4,4.4V12.8z"/>
	</g>
	<line class="st1" x1="0.5" y1="38.5" x2="9.3" y2="38.5"/>
</g>
</svg>
