<?xml version="1.0" encoding="utf-8"?>
<!-- Generator: Adobe Illustrator 23.0.1, SVG Export Plug-In . SVG Version: 6.00 Build 0)  -->
<svg version="1.1" id="Layer_1" xmlns="http://www.w3.org/2000/svg" xmlns:xlink="http://www.w3.org/1999/xlink" x="0px" y="0px"
	 viewBox="0 0 51.83 45.88" style="enable-background:new 0 0 51.83 45.88;" xml:space="preserve">
<style type="text/css">
	.st0{fill:none;stroke:#000000;stroke-width:1.32;stroke-miterlimit:10;}
	.st1{fill:none;stroke:#000000;stroke-width:1.32;stroke-linecap:round;stroke-miterlimit:10;}
</style>
<g>
	<circle class="st0" cx="7.67" cy="17.13" r="2.83"/>
	<path class="st1" d="M18.91,10.31c0-1.56-1.27-2.83-2.83-2.83s-2.83,1.27-2.83,2.83"/>
	<path class="st1" d="M37.87,10.31c0-1.56-1.27-2.83-2.83-2.83c-1.56,0-2.83,1.27-2.83,2.83"/>
	<path class="st1" d="M28.74,3.49c0-1.56-1.27-2.83-2.83-2.83s-2.83,1.27-2.83,2.83"/>
	<path class="st1" d="M12.1,33.49h1.98c0.33,0,0.59-0.26,0.59-0.59v-4.93c0-3.87-3.14-7.01-7.01-7.01h0c-3.87,0-7.01,3.14-7.01,7.01
		v4.93c0,0.33,0.26,0.59,0.59,0.59h1.98"/>
	<path class="st0" d="M12.1,33.56l-0.37,9.17c-0.06,1.39-1.2,2.49-2.6,2.49H6.2c-1.39,0-2.54-1.1-2.6-2.49l-0.37-9.17"/>
	<circle class="st0" cx="25.91" cy="17.13" r="2.83"/>
	<path class="st1" d="M30.35,33.49h1.98c0.33,0,0.59-0.26,0.59-0.59v-4.93c0-3.87-3.14-7.01-7.01-7.01h0
		c-3.87,0-7.01,3.14-7.01,7.01v4.93c0,0.33,0.26,0.59,0.59,0.59h1.98"/>
	<path class="st0" d="M30.35,33.56l-0.37,9.17c-0.06,1.39-1.2,2.49-2.6,2.49h-2.93c-1.39,0-2.54-1.1-2.6-2.49l-0.37-9.17"/>
	<circle class="st0" cx="44.16" cy="17.13" r="2.83"/>
	<path class="st1" d="M48.6,33.49h1.98c0.33,0,0.59-0.26,0.59-0.59v-4.93c0-3.87-3.14-7.01-7.01-7.01h0c-3.87,0-7.01,3.14-7.01,7.01
		v4.93c0,0.33,0.26,0.59,0.59,0.59h1.98"/>
	<path class="st0" d="M48.6,33.56l-0.37,9.17c-0.06,1.39-1.2,2.49-2.6,2.49h-2.93c-1.39,0-2.54-1.1-2.6-2.49l-0.37-9.17"/>
</g>
</svg>
