<?xml version="1.0" encoding="utf-8"?>
<!-- Generator: Adobe Illustrator 23.0.1, SVG Export Plug-In . SVG Version: 6.00 Build 0)  -->
<svg version="1.1" id="Layer_1" xmlns="http://www.w3.org/2000/svg" xmlns:xlink="http://www.w3.org/1999/xlink" x="0px" y="0px"
	 viewBox="0 0 56.52 44.81" style="enable-background:new 0 0 56.52 44.81;" xml:space="preserve">
<style type="text/css">
	.st0{fill:none;stroke:#000000;stroke-width:1.5;stroke-miterlimit:10;}
	.st1{fill:none;stroke:#000000;stroke-miterlimit:10;}
</style>
<path class="st0" d="M8.44,44.12V2.07c0-0.73,0.59-1.32,1.32-1.32H33.7c0.73,0,1.32,0.59,1.32,1.32v42.05"/>
<polyline class="st0" points="13.44,44.12 13.44,5.75 30.03,5.75 30.03,44.12 "/>
<path class="st0" d="M35.28,10.48h12.81c0.57,0,1.03,0.46,1.03,1.03v32.61"/>
<polyline class="st0" points="35.4,14.36 45.24,14.36 45.24,44.12 "/>
<g>
	<path class="st-fill" d="M19.98,12.81h-3.49c-0.41,0-0.75-0.34-0.75-0.75v0c0-0.41,0.34-0.75,0.75-0.75h3.49c0.41,0,0.75,0.34,0.75,0.75v0
		C20.73,12.47,20.39,12.81,19.98,12.81z"/>
	<path class="st-fill" d="M26.98,12.81h-3.49c-0.41,0-0.75-0.34-0.75-0.75v0c0-0.41,0.34-0.75,0.75-0.75h3.49c0.41,0,0.75,0.34,0.75,0.75v0
		C27.73,12.47,27.39,12.81,26.98,12.81z"/>
</g>
<path class="st-fill" d="M19.98,19.81h-3.49c-0.41,0-0.75-0.34-0.75-0.75l0,0c0-0.41,0.34-0.75,0.75-0.75h3.49c0.41,0,0.75,0.34,0.75,0.75l0,0
	C20.73,19.47,20.39,19.81,19.98,19.81z"/>
<path class="st-fill" d="M26.98,19.81h-3.49c-0.41,0-0.75-0.34-0.75-0.75l0,0c0-0.41,0.34-0.75,0.75-0.75h3.49c0.41,0,0.75,0.34,0.75,0.75l0,0
	C27.73,19.47,27.39,19.81,26.98,19.81z"/>
<path class="st-fill" d="M41.98,19.81h-3.49c-0.41,0-0.75-0.34-0.75-0.75l0,0c0-0.41,0.34-0.75,0.75-0.75h3.49c0.41,0,0.75,0.34,0.75,0.75l0,0
	C42.73,19.47,42.39,19.81,41.98,19.81z"/>
<path class="st-fill" d="M19.98,26.81h-3.49c-0.41,0-0.75-0.34-0.75-0.75v0c0-0.41,0.34-0.75,0.75-0.75h3.49c0.41,0,0.75,0.34,0.75,0.75v0
	C20.73,26.47,20.39,26.81,19.98,26.81z"/>
<path class="st-fill" d="M26.73,27.06h-2.99c-0.55,0-1-0.45-1-1v0c0-0.55,0.45-1,1-1h2.99c0.55,0,1,0.45,1,1v0C27.73,26.61,27.28,27.06,26.73,27.06z
	"/>
<path class="st-fill" d="M41.98,26.81h-3.49c-0.41,0-0.75-0.34-0.75-0.75v0c0-0.41,0.34-0.75,0.75-0.75h3.49c0.41,0,0.75,0.34,0.75,0.75v0
	C42.73,26.47,42.39,26.81,41.98,26.81z"/>
<rect class="st-fill" x="20.48" y="40.31" width="2" height="4"/>
<line class="st1" x1="0" y1="44.31" x2="56.52" y2="44.31"/>
</svg>
