<?xml version="1.0" encoding="utf-8"?>
<!-- Generator: Adobe Illustrator 23.0.1, SVG Export Plug-In . SVG Version: 6.00 Build 0)  -->
<svg version="1.1" id="Layer_1" xmlns="http://www.w3.org/2000/svg" xmlns:xlink="http://www.w3.org/1999/xlink" x="0px" y="0px"
	 viewBox="0 0 52.37 52.37" style="enable-background:new 0 0 52.37 52.37;" xml:space="preserve">
<style type="text/css">
	.st0{fill:none;stroke:#000000;stroke-width:1.5;stroke-miterlimit:10;}
</style>
<g>
	<path class="st0" d="M26.19,51.62L26.19,51.62c-14.05,0-25.44-11.39-25.44-25.44V1.7c0-0.53,0.43-0.95,0.95-0.95h48.97
		c0.53,0,0.95,0.43,0.95,0.95v24.48C51.62,40.23,40.23,51.62,26.19,51.62z"/>
	<g>
		<path class="st0" d="M28.83,28.04h-5.29c-1.1,0-2-0.9-2-2V0.75h9.29v25.29C30.83,27.14,29.93,28.04,28.83,28.04z"/>
		<line class="st0" x1="26.19" y1="28.04" x2="26.19" y2="51.61"/>
	</g>
	<g>
		<g>
			<path class="st0" d="M43.45,28.04h-5.29c-1.1,0-2-0.9-2-2V0.75h9.29v25.29C45.45,27.14,44.56,28.04,43.45,28.04z"/>
			<line class="st0" x1="40.81" y1="28.04" x2="40.81" y2="46.8"/>
		</g>
		<g>
			<path class="st0" d="M37.44,28.04c-0.7,0-1.27-0.57-1.27-1.27V0.75h9.29v26.02c0,0.7-0.57,1.27-1.27,1.27"/>
			<path class="st0" d="M40.81,46.8"/>
			<path class="st0" d="M40.81,28.04"/>
		</g>
	</g>
	<g>
		<path class="st0" d="M14.21,28.04H8.92c-1.1,0-2-0.9-2-2V0.75h9.29v25.29C16.21,27.14,15.31,28.04,14.21,28.04z"/>
		<line class="st0" x1="11.56" y1="28.04" x2="11.56" y2="46.8"/>
	</g>
</g>
</svg>
