<?xml version="1.0" encoding="utf-8"?>
<!-- Generator: Adobe Illustrator 23.0.1, SVG Export Plug-In . SVG Version: 6.00 Build 0)  -->
<svg version="1.1" id="Layer_1" xmlns="http://www.w3.org/2000/svg" xmlns:xlink="http://www.w3.org/1999/xlink" x="0px" y="0px"
	 viewBox="0 0 52.4 52.4" style="enable-background:new 0 0 52.4 52.4;" xml:space="preserve">
<style type="text/css">
	.st0{fill:none;stroke:#000000;stroke-width:1.5;stroke-miterlimit:10;}
</style>
<g>
	<path class="st0" d="M26.2,51.6L26.2,51.6c-14,0-25.4-11.4-25.4-25.4V1.7c0-0.5,0.4-1,1-1h49c0.5,0,1,0.4,1,1v24.5
		C51.6,40.2,40.2,51.6,26.2,51.6z"/>
	<g>
		<path class="st0" d="M28.8,28h-5.3c-1.1,0-2-0.9-2-2V0.8h9.3V26C30.8,27.1,29.9,28,28.8,28z"/>
		<line class="st0" x1="26.2" y1="28" x2="26.2" y2="51.6"/>
	</g>
	<g>
		<g>
			<path class="st0" d="M43.5,28h-5.3c-1.1,0-2-0.9-2-2V0.8h9.3V26C45.5,27.1,44.6,28,43.5,28z"/>
			<line class="st0" x1="40.8" y1="28" x2="40.8" y2="46.8"/>
		</g>
		<g>
			<path class="st0" d="M37.4,28c-0.7,0-1.3-0.6-1.3-1.3v-26h9.3v26c0,0.7-0.6,1.3-1.3,1.3"/>
			<path class="st0" d="M40.8,46.8"/>
			<path class="st0" d="M40.8,28"/>
		</g>
	</g>
	<g>
		<path class="st0" d="M14.2,28H8.9c-1.1,0-2-0.9-2-2V0.8h9.3V26C16.2,27.1,15.3,28,14.2,28z"/>
		<line class="st0" x1="11.6" y1="28" x2="11.6" y2="46.8"/>
	</g>
</g>
</svg>
