<?xml version="1.0" encoding="utf-8"?>
<!-- Generator: Adobe Illustrator 23.0.1, SVG Export Plug-In . SVG Version: 6.00 Build 0)  -->
<svg version="1.1" id="Layer_1" xmlns="http://www.w3.org/2000/svg" xmlns:xlink="http://www.w3.org/1999/xlink" x="0px" y="0px"
	 viewBox="0 0 66 61.5" style="enable-background:new 0 0 66 61.5;" xml:space="preserve">
<style type="text/css">
	.st0{fill:none;stroke:#000000;stroke-miterlimit:10;}
	.st1{fill:none;stroke:#000000;stroke-linecap:round;stroke-linejoin:round;stroke-miterlimit:10;}
</style>
<g>
	<g>
		<path d="M11,58.5H9v2c0,0.6,0.4,1,1,1h0c0.6,0,1-0.4,1-1V58.5z"/>
		<path d="M57,58.5h-2v2c0,0.6,0.4,1,1,1l0,0c0.6,0,1-0.4,1-1V58.5z"/>
	</g>
	<g>
		<g>
			<path class="st0" d="M59,57.8H7c-3.6,0-6.5-2.9-6.5-6.5V19.3c0-3.6,2.9-6.5,6.5-6.5H59c3.6,0,6.5,2.9,6.5,6.5v31.9
				C65.5,54.8,62.6,57.8,59,57.8z"/>
			<path class="st0" d="M39,52.3H13c-3.6,0-6.5-2.9-6.5-6.5V24.8c0-3.6,2.9-6.5,6.5-6.5H39c3.6,0,6.5,2.9,6.5,6.5v20.9
				C45.5,49.3,42.6,52.3,39,52.3z"/>
			<g>
				<circle class="st0" cx="55.8" cy="26.5" r="4"/>
				<circle class="st0" cx="55.8" cy="38.5" r="3"/>
			</g>
		</g>
		<polyline class="st1" points="27,0.5 33,12.5 39,5.5 		"/>
	</g>
</g>
</svg>
