<?xml version="1.0" encoding="utf-8"?>
<!-- Generator: Adobe Illustrator 23.0.1, SVG Export Plug-In . SVG Version: 6.00 Build 0)  -->
<svg version="1.1" id="Layer_1" xmlns="http://www.w3.org/2000/svg" xmlns:xlink="http://www.w3.org/1999/xlink" x="0px" y="0px"
	 viewBox="0 0 108.4 94" style="enable-background:new 0 0 108.4 94;" xml:space="preserve">
<style type="text/css">
	.st2000{fill:none;stroke:#000000;stroke-width:2;stroke-linecap:round;stroke-linejoin:round;stroke-miterlimit:10;}
	.st2000{fill:none;stroke:#000000;stroke-width:2;stroke-miterlimit:10;}
</style>
<g>
	<g>
		<line class="st2000" x1="30" y1="43.3" x2="30" y2="55.7"/>
		<path class="st2000" d="M34.6,30.1h-9.3c-0.2,0-0.5,0.2-0.5,0.4l-2.9,12.2c-0.1,0.3,0.2,0.6,0.5,0.6h15c0.3,0,0.6-0.3,0.5-0.6
			l-2.9-12.2C35.1,30.3,34.8,30.1,34.6,30.1z"/>
		<g>
			<line class="st2000" x1="29.9" y1="30.1" x2="26.1" y2="43.3"/>
			<line class="st2000" x1="30" y1="30.1" x2="33.8" y2="43.3"/>
		</g>
	</g>
	<g>
		<g>
			<path d="M78.4,37.1v-5.5c0-0.4,0.3-0.8,0.8-0.8l0,0c0.4,0,0.8,0.3,0.8,0.8v5.5c0,0.4-0.3,0.8-0.8,0.8l0,0
				C78.7,37.9,78.4,37.5,78.4,37.1z"/>
			<path d="M87.4,37.1v-5.5c0-0.4,0.3-0.8,0.8-0.8l0,0c0.4,0,0.8,0.3,0.8,0.8v5.5c0,0.4-0.3,0.8-0.8,0.8l0,0
				C87.7,37.9,87.4,37.5,87.4,37.1z"/>
		</g>
		<path class="st2000" d="M107.4,69H59.1V11.6C59.1,5.8,63.9,1,69.8,1h26.9c5.9,0,10.6,4.8,10.6,10.6V69z"/>
		<line class="st2000" x1="83.3" y1="1" x2="83.3" y2="69"/>
	</g>
	<g>
		<g>
			<path class="st2000" d="M100.1,88H66.4c-4,0-7.2-3.2-7.2-7.2V73h48.2v7.8C107.4,84.8,104.1,88,100.1,88z"/>
			<line class="st2000" x1="59.1" y1="80" x2="59.1" y2="93"/>
		</g>
		<line class="st2000" x1="107.4" y1="80" x2="107.4" y2="93"/>
	</g>
	<path class="st2000" d="M59.1,55.2h-54C2.8,55.2,1,57,1,59.3V93"/>
	<path class="st2000" d="M18,93V77c0-2.7,2.2-5,5-5H38c2.7,0,5,2.2,5,5v16"/>
</g>
</svg>
