<?xml version="1.0" encoding="utf-8"?>
<!-- Generator: Adobe Illustrator 23.0.1, SVG Export Plug-In . SVG Version: 6.00 Build 0)  -->
<svg version="1.1" id="Layer_1" xmlns="http://www.w3.org/2000/svg" xmlns:xlink="http://www.w3.org/1999/xlink" x="0px" y="0px"
	 viewBox="0 0 53.5 46.7" style="enable-background:new 0 0 53.5 46.7;" xml:space="preserve">
<style type="text/css">
	.st0{fill:none;stroke:#000000;stroke-width:1.5;stroke-miterlimit:10;}
	.st1{fill:none;stroke:#000000;stroke-width:1.5;stroke-linecap:round;stroke-linejoin:round;stroke-miterlimit:10;}
	.st2{fill:none;stroke:#000000;stroke-width:1.32;stroke-miterlimit:10;}
	.st3{fill:none;stroke:#000000;stroke-width:1.32;stroke-linecap:round;stroke-miterlimit:10;}
</style>
<circle class="st0" cx="38" cy="40.4" r="5.2"/>
<line class="st1" x1="32.8" y1="40.4" x2="20.4" y2="40.4"/>
<path class="st1" d="M17.4,9.9h14.7c0.3,0,0.5,0.1,0.7,0.4l5.9,9c0.5,0.7,1.2,1.3,2,1.6l10.4,2.9c1,0.4,1.7,1.4,1.7,2.5v13.4
	c0,0.4-0.4,0.8-0.8,0.8h-8.7"/>
<circle class="st2" cx="10.9" cy="4.8" r="4.1"/>
<path class="st3" d="M17.4,28.8h2.9c0.5,0,0.9-0.4,0.9-0.9v-7.2c0-5.7-4.6-10.3-10.3-10.3h0C5.3,10.4,0.7,15,0.7,20.7v7.2
	c0,0.5,0.4,0.9,0.9,0.9h2.9"/>
<path class="st2" d="M17.4,28.9l-0.5,13.4c-0.1,2-1.8,3.7-3.8,3.7H8.8c-2,0-3.7-1.6-3.8-3.7L4.4,28.9"/>
</svg>
