<?xml version="1.0" encoding="utf-8"?>
<!-- Generator: Adobe Illustrator 23.0.1, SVG Export Plug-In . SVG Version: 6.00 Build 0)  -->
<svg version="1.1" id="Layer_1" xmlns="http://www.w3.org/2000/svg" xmlns:xlink="http://www.w3.org/1999/xlink" x="0px" y="0px"
	 viewBox="0 0 53.5 46.65" style="enable-background:new 0 0 53.5 46.65;" xml:space="preserve">
<style type="text/css">
	.st0{fill:none;stroke:#000000;stroke-width:1.5;stroke-miterlimit:10;}
	.st1{fill:none;stroke:#000000;stroke-width:1.5;stroke-linecap:round;stroke-linejoin:round;stroke-miterlimit:10;}
	.st2{fill:none;stroke:#000000;stroke-width:1.32;stroke-miterlimit:10;}
	.st3{fill:none;stroke:#000000;stroke-width:1.32;stroke-linecap:round;stroke-miterlimit:10;}
</style>
<circle class="st0" cx="37.99" cy="40.4" r="5.21"/>
<line class="st1" x1="32.77" y1="40.4" x2="20.43" y2="40.4"/>
<path class="st1" d="M17.44,9.87h14.7c0.27,0,0.53,0.14,0.68,0.37l5.89,8.96c0.48,0.73,1.16,1.29,1.97,1.61l10.39,2.91
	c1.02,0.41,1.69,1.39,1.69,2.49v13.38c0,0.45-0.36,0.81-0.81,0.81H43.2"/>
<circle class="st2" cx="10.93" cy="4.81" r="4.15"/>
<path class="st3" d="M17.44,28.79h2.9c0.48,0,0.86-0.39,0.86-0.86V20.7c0-5.67-4.6-10.27-10.27-10.27h0
	c-5.67,0-10.27,4.6-10.27,10.27v7.22c0,0.48,0.39,0.86,0.86,0.86h2.9"/>
<path class="st2" d="M17.44,28.89l-0.55,13.45c-0.08,2.04-1.76,3.65-3.81,3.65h-4.3c-2.04,0-3.72-1.61-3.81-3.65L4.43,28.89"/>
</svg>
