<?xml version="1.0" encoding="utf-8"?>
<!-- Generator: Adobe Illustrator 23.0.1, SVG Export Plug-In . SVG Version: 6.00 Build 0)  -->
<svg version="1.1" id="Layer_1" xmlns="http://www.w3.org/2000/svg" xmlns:xlink="http://www.w3.org/1999/xlink" x="0px" y="0px"
	 viewBox="0 0 51.8 45.9" style="enable-background:new 0 0 51.8 45.9;" xml:space="preserve">
<style type="text/css">
	.st0{fill:none;stroke:#000000;stroke-width:1.32;stroke-miterlimit:10;}
	.st1{fill:none;stroke:#000000;stroke-width:1.32;stroke-linecap:round;stroke-miterlimit:10;}
</style>
<g>
	<circle class="st0" cx="7.7" cy="17.1" r="2.8"/>
	<path class="st1" d="M18.9,10.3c0-1.6-1.3-2.8-2.8-2.8s-2.8,1.3-2.8,2.8"/>
	<path class="st1" d="M37.9,10.3c0-1.6-1.3-2.8-2.8-2.8c-1.6,0-2.8,1.3-2.8,2.8"/>
	<path class="st1" d="M28.7,3.5c0-1.6-1.3-2.8-2.8-2.8s-2.8,1.3-2.8,2.8"/>
	<path class="st1" d="M12.1,33.5h2c0.3,0,0.6-0.3,0.6-0.6V28c0-3.9-3.1-7-7-7h0c-3.9,0-7,3.1-7,7v4.9c0,0.3,0.3,0.6,0.6,0.6h2"/>
	<path class="st0" d="M12.1,33.6l-0.4,9.2c-0.1,1.4-1.2,2.5-2.6,2.5H6.2c-1.4,0-2.5-1.1-2.6-2.5l-0.4-9.2"/>
	<circle class="st0" cx="25.9" cy="17.1" r="2.8"/>
	<path class="st1" d="M30.3,33.5h2c0.3,0,0.6-0.3,0.6-0.6V28c0-3.9-3.1-7-7-7h0c-3.9,0-7,3.1-7,7v4.9c0,0.3,0.3,0.6,0.6,0.6h2"/>
	<path class="st0" d="M30.3,33.6L30,42.7c-0.1,1.4-1.2,2.5-2.6,2.5h-2.9c-1.4,0-2.5-1.1-2.6-2.5l-0.4-9.2"/>
	<circle class="st0" cx="44.2" cy="17.1" r="2.8"/>
	<path class="st1" d="M48.6,33.5h2c0.3,0,0.6-0.3,0.6-0.6V28c0-3.9-3.1-7-7-7h0c-3.9,0-7,3.1-7,7v4.9c0,0.3,0.3,0.6,0.6,0.6h2"/>
	<path class="st0" d="M48.6,33.6l-0.4,9.2c-0.1,1.4-1.2,2.5-2.6,2.5h-2.9c-1.4,0-2.5-1.1-2.6-2.5l-0.4-9.2"/>
</g>
</svg>
