<?xml version="1.0" encoding="iso-8859-1"?>
<!-- Generator: Adobe Illustrator 19.0.0, SVG Export Plug-In . SVG Version: 6.00 Build 0)  -->
<svg version="1.1" id="Layer_1" xmlns="http://www.w3.org/2000/svg" xmlns:xlink="http://www.w3.org/1999/xlink" x="0px" y="0px"
	 viewBox="0 0 469.333 469.333" style="enable-background:new 0 0 469.333 469.333;" xml:space="preserve">
<g>
	<g>
		<path d="M458.667,277.333h-46.729c34.551-22.944,57.396-62.169,57.396-106.667c0-70.583-57.417-128-128-128h-44.5
			c-16.604,0-32.208-6.469-43.958-18.208C237.083,8.687,216.125,0,193.833,0H74.667c-3.75,0-7.229,1.969-9.167,5.198
			c-1.917,3.219-2,7.219-0.229,10.521L128,132.216v145.117H53.333c-5.896,0-10.667,4.771-10.667,10.667c0,17.646-14.354,32-32,32
			C4.771,320,0,324.771,0,330.667v10.667C0,364.865,19.146,384,42.667,384h1.251l9.499,75.99c0.667,5.333,5.208,9.344,10.583,9.344
			s9.917-4.01,10.583-9.344L84.082,384h194.503l9.499,75.99c0.667,5.333,5.208,9.344,10.583,9.344s9.917-4.01,10.583-9.344
			l9.499-75.99h66.503l9.499,75.99c0.667,5.333,5.208,9.344,10.583,9.344s9.917-4.01,10.583-9.344l9.499-75.99h1.251
			c23.521,0,42.667-19.135,42.667-42.667V288C469.333,282.104,464.563,277.333,458.667,277.333z M149.333,277.333V171.835
			l56.807,105.499H149.333z"/>
	</g>
</g>
<g>
</g>
<g>
</g>
<g>
</g>
<g>
</g>
<g>
</g>
<g>
</g>
<g>
</g>
<g>
</g>
<g>
</g>
<g>
</g>
<g>
</g>
<g>
</g>
<g>
</g>
<g>
</g>
<g>
</g>
</svg>
