<?xml version="1.0" encoding="iso-8859-1"?>
<!-- Generator: Adobe Illustrator 19.0.0, SVG Export Plug-In . SVG Version: 6.00 Build 0)  -->
<svg version="1.1" id="Capa_1" xmlns="http://www.w3.org/2000/svg" xmlns:xlink="http://www.w3.org/1999/xlink" x="0px" y="0px"
	 viewBox="0 0 512 512" style="enable-background:new 0 0 512 512;" xml:space="preserve">
<g>
	<g>
		<path d="M512,204.334v-7.5c0-20.678-16.822-37.5-37.5-37.5h-17.198c2.186-4.488,3.031-9.567,2.343-14.612l-8.098-59.388h-7.093
			l20.915-18.941L455.3,55.276l-28.465,25.78V46.167h-15v35.19l-28.799-26.082l-10.069,11.117l20.915,18.941h-6.76l-8.098,59.388
			c-0.688,5.046,0.157,10.124,2.343,14.612H37.5c-20.678,0-37.5,16.822-37.5,37.5v7.5h28.5v51.18
			c-17.324,48.15-6.844,73.885,4.244,101.121c13.042,32.033,26.527,65.157-3.759,145.211L25.145,512h46.037l1.833-4.846
			c32.37-85.563,17.097-123.077,3.623-156.176c-2.46-6.042-4.784-11.75-6.768-17.629c-5.426-16.08-2.841-33.236,7.091-47.07
			c10.013-13.946,25.593-21.945,42.746-21.945h272.397c17.152,0,32.732,7.999,42.746,21.945c9.933,13.833,12.517,30.99,7.092,47.07
			c-1.983,5.879-4.307,11.586-6.767,17.629c-13.475,33.098-28.749,70.612,3.622,156.176L440.63,512h46.037l-3.841-10.154
			c-30.286-80.054-16.8-113.178-3.759-145.211c11.088-27.236,21.568-52.971,4.244-101.121v-51.18
			C483.311,204.334,512,204.334,512,204.334z M393.884,146.749l6.33-46.415h38.24l6.33,46.415c0.416,3.049-0.47,6.005-2.494,8.323
			c-2.023,2.318-4.833,3.595-7.91,3.595h-30.091c-3.078,0-5.887-1.276-7.91-3.595C394.354,152.754,393.469,149.798,393.884,146.749z
			 M465.175,350.979c-12.93,31.759-27.515,67.584-0.077,146.021h-14.073c-27.932-76.557-14.733-108.987-1.958-140.366
			c2.437-5.985,4.957-12.175,7.087-18.489c6.989-20.714,3.665-42.808-9.12-60.614c-12.866-17.919-32.887-28.196-54.93-28.196
			H119.708c-22.043,0-42.065,10.277-54.931,28.197c-12.785,17.807-16.108,39.899-9.119,60.613c2.13,6.314,4.65,12.504,7.087,18.49
			C75.52,388.014,88.719,420.445,60.787,497H46.714c27.438-78.438,12.854-114.263-0.077-146.021
			c-10.496-25.781-19.561-48.046-3.596-91.562l0.459-1.251v-53.832h424.811v53.832l0.46,1.251
			C484.736,302.933,475.671,325.197,465.175,350.979z M28.5,189.334H16.286c3.095-8.73,11.437-15,21.215-15h437
			c9.778,0,18.12,6.27,21.215,15h-12.404H28.5z"/>
	</g>
</g>
<g>
	<g>
		<rect x="306" y="219" width="15" height="15"/>
	</g>
</g>
<g>
	<g>
		<rect x="221" y="219" width="70" height="15"/>
	</g>
</g>
<g>
	<g>
		<rect x="191" y="219" width="15" height="15"/>
	</g>
</g>
<g>
	<g>
		<path d="M441.832,22.321l-6.875,0.117h-8.124l0.001,0.107c-0.016,2.651-1.45,5.12-3.75,6.453l7.521,12.979
			c6.927-4.014,11.229-11.477,11.229-19.477L441.832,22.321z"/>
	</g>
</g>
<g>
	<g>
		<path d="M411.834,22.516l-15,0.031c0.016,8.001,4.335,15.455,11.271,19.454l7.492-12.994
			C413.281,27.671,411.839,25.185,411.834,22.516z"/>
	</g>
</g>
<g>
	<g>
		<path d="M419.332,0c-3.976,0.001-7.886,1.055-11.307,3.046l7.545,12.965c2.288-1.333,5.192-1.342,7.487-0.025l7.467-13.01
			C427.13,1.029,423.261,0,419.332,0z"/>
	</g>
</g>
<g>
</g>
<g>
</g>
<g>
</g>
<g>
</g>
<g>
</g>
<g>
</g>
<g>
</g>
<g>
</g>
<g>
</g>
<g>
</g>
<g>
</g>
<g>
</g>
<g>
</g>
<g>
</g>
<g>
</g>
</svg>
